<svg width="200" height="200" viewBox="0 0 200 200" fill="none" xmlns="http://www.w3.org/2000/svg">
<circle cx="100" cy="100" r="100" fill="#FECE00"/>
<path d="M52.8873 63.1568C49.1593 66.6901 44.0333 70.0629 41.3926 70.7054C36.4219 71.669 33.9366 75.2024 36.2666 77.6115C40.4606 81.9479 63.2946 66.6901 63.2946 59.784C63.2946 55.1263 60.0326 56.09 52.8873 63.1568Z" fill="#522500"/>
<path d="M141.539 59.6804C141.539 65.1411 156.14 76.7049 164.062 77.6686C173.382 78.7928 173.848 73.814 164.839 71.2442C161.421 70.2806 155.829 66.7472 152.101 63.2138C145.111 56.3077 141.539 55.0228 141.539 59.6804Z" fill="#522500"/>
<path d="M40 92.1215C40 94.0488 42.6407 96.4579 47.456 98.8671L54.7567 102.561L47.456 104.97C41.864 106.897 40 108.343 40 110.591C40 113.161 40.7767 113.482 45.126 112.679C54.2907 110.913 66.8726 106.094 67.494 104.328C68.1153 102.24 46.3687 89.2306 42.33 89.2306C41.0873 89.2306 40 90.5154 40 92.1215Z" fill="#522500"/>
<path d="M149.673 94.86C135.382 102.248 134.916 105.139 147.343 108.833C152.158 110.439 158.372 111.724 160.857 111.885C168.468 112.206 166.449 107.869 157.75 104.818L149.984 102.087L158.216 97.751C165.983 93.7357 168.002 90.0418 163.032 89.2387C161.789 89.0781 155.731 91.4872 149.673 94.86Z" fill="#522500"/>
<path d="M91.8759 117.956C76.8085 121.168 61.7412 130.484 61.7412 136.747C61.7412 142.69 65.6245 142.85 73.0805 137.229C90.6332 124.22 114.865 124.38 132.884 137.711C138.942 142.208 139.718 142.369 142.048 140.12C145.31 136.587 143.912 133.535 136.146 127.593C125.272 119.562 105.079 115.065 91.8759 117.956Z" fill="#522500"/>
</svg>
