<svg width="200" height="200" viewBox="0 0 200 200" fill="none" xmlns="http://www.w3.org/2000/svg">
<circle cx="100" cy="100" r="100" fill="#FECE00"/>
<path d="M51.8012 55.6977C48.7496 58.7492 43.4495 62.2827 39.7555 63.5675C31.725 66.1373 29.637 71.1162 36.2221 71.1162C38.6312 71.1162 42.9677 69.9919 46.0193 68.5465C52.7649 65.3343 63.0439 55.3764 62.2409 52.8067C61.1166 49.2733 56.9407 50.3975 51.8012 55.6977Z" fill="#522500"/>
<path d="M140.115 52.0957C138.83 54.5049 148.627 64.9445 155.533 68.4779C163.403 72.4932 170.309 72.6538 169.506 68.7992C169.185 67.1931 166.615 65.2657 163.724 64.4627C160.833 63.6596 155.373 60.2868 151.518 56.7534C144.29 50.4896 141.881 49.526 140.115 52.0957Z" fill="#522500"/>
<path d="M45.5688 90.1968C43.3202 92.4453 44.7657 94.0514 52.9568 98.2273L61.3085 102.564L53.7599 104.652C47.9779 106.418 46.0506 107.703 46.0506 110.112C46.0506 113.967 46.8536 113.967 61.4692 109.631C76.8877 105.294 76.8877 103.046 61.6298 95.0151C49.9052 88.9119 47.4961 88.2694 45.5688 90.1968Z" fill="#522500"/>
<path d="M139.181 95.1879C123.602 103.058 123.762 105.306 140.305 109.964C150.102 112.694 153.796 113.176 155.081 111.891C157.651 109.322 155.242 107.234 146.569 104.664L139.502 102.576L148.014 98.2395C156.205 93.903 159.257 88.9241 153.636 89.2453C152.03 89.2453 145.445 91.9757 139.181 95.1879Z" fill="#522500"/>
<path d="M72.4452 139.638C68.2356 143.548 64.182 146.968 63.7142 146.968C63.2465 146.968 61.5315 145.502 59.9724 143.71C56.3864 139.638 53.5801 139.638 51.3973 143.71C49.9941 146.317 50.7737 147.946 55.451 153.484C58.5692 157.068 62.311 160 63.7142 160C65.1174 160 69.6388 156.579 73.6925 152.67C77.9021 148.597 81.7999 145.339 82.4235 145.339C83.0472 145.339 86.6331 148.597 90.375 152.67C94.1168 156.742 98.3264 160 99.7296 160C101.133 160 105.342 156.742 109.084 152.67C112.826 148.597 116.724 145.339 117.659 145.339C118.595 145.339 122.493 148.597 126.234 152.67C129.976 156.742 134.186 160 135.589 160C139.487 160 150.245 147.62 149.153 144.525C147.438 140.127 143.385 139.801 139.331 143.873L135.589 147.62L128.105 139.964C124.052 135.729 119.374 132.308 117.971 132.308C116.412 132.308 111.735 135.729 107.369 139.964L99.5737 147.457L92.2459 139.964C88.1922 135.729 83.8267 132.308 82.5794 132.308C81.3321 132.308 76.8107 135.566 72.4452 139.638Z" fill="#522500"/>
</svg>
