<svg width="200" height="200" viewBox="0 0 200 200" fill="none" xmlns="http://www.w3.org/2000/svg">
<circle cx="100" cy="100" r="100" fill="#FECE00"/>
<path d="M50.7958 27.5723C48.9109 28.2021 45.2981 31.5086 42.6278 34.815C37.7584 40.6407 37.4443 40.7982 32.4178 38.9088C24.8781 36.2321 18.7521 36.547 12.7832 40.1684C6.65723 43.9472 4.61523 48.6708 4.61523 59.22C4.61523 71.1864 7.44262 75.1226 23.1503 85.357C31.3183 90.5529 51.4241 100 54.7227 100C56.9218 100 70.1163 79.2164 75.614 67.4075C83.3107 50.4027 80.7975 36.547 68.7026 29.1468C63.362 25.8403 56.4506 25.2105 50.7958 27.5723Z" fill="#CC342F"/>
<path d="M129.961 29.1719C113.124 39.3653 114.727 58.1593 135.092 89.3765C144.072 103.074 143.11 102.915 164.918 92.4027C173.416 88.2616 181.755 82.6871 187.046 77.7497C195.224 69.7861 195.385 69.4676 195.385 60.3891C195.385 49.5586 192.338 42.8692 185.763 39.5245C180.151 36.6576 174.218 36.4984 167.002 39.0467C161.711 40.958 161.39 40.7987 157.541 35.8613C149.684 25.9864 139.422 23.4381 129.961 29.1719Z" fill="#CC342F"/>
<path d="M58.4614 124.289C58.4614 129.954 66.2721 142.416 72.7809 147.109C88.565 158.277 112.648 158.115 129.083 146.786C135.266 142.416 143.077 129.954 143.077 124.289C143.077 118.948 143.239 118.948 128.92 122.347C114.275 125.908 85.4732 125.908 72.1301 122.347C58.9496 118.948 58.4614 118.948 58.4614 124.289Z" fill="#522A10"/>
<path fill-rule="evenodd" clip-rule="evenodd" d="M119.982 151.649C107.262 156.76 92.2501 156.635 80.0491 151.221C80.774 143.231 89.4293 136.923 99.9999 136.923C110.759 136.923 119.533 143.458 119.982 151.649Z" fill="#C8352E"/>
</svg>
