<svg width="200" height="200" viewBox="0 0 200 200" fill="none" xmlns="http://www.w3.org/2000/svg">
<circle cx="100" cy="100" r="100" fill="#FECE00"/>
<path d="M38.769 74.0993C30.3674 77.5285 25.5665 90.2167 33.7966 87.3019C38.4261 85.5872 49.9141 85.7587 55.2294 87.6448C58.3157 88.6736 59.0016 88.3306 59.0016 85.5872C59.0016 80.6148 53.0004 73.5849 48.028 72.7276C45.799 72.2132 41.5124 72.899 38.769 74.0993Z" fill="#522500"/>
<path d="M151.145 72.4839C145.83 73.5126 140 79.8567 140 84.3148C140 87.9155 140.514 88.2584 143.944 87.0582C148.573 85.3435 160.061 85.515 165.548 87.4011C169.32 88.7728 169.663 88.4299 168.463 83.8004C167.777 81.057 166.405 77.9707 165.548 76.7704C163.147 74.027 155.26 71.6266 151.145 72.4839Z" fill="#522500"/>
<path d="M75.4059 107.377C70.1525 108.19 61.2377 110.14 55.5068 111.766C46.2737 114.204 45.1593 115.017 44.6817 118.919C43.5674 128.184 56.6212 143.953 71.5853 151.43C90.6884 160.859 110.269 160.859 129.85 151.105C146.883 142.49 161.688 122.332 155.48 115.993C154.365 114.855 147.679 112.254 140.675 110.466C125.87 106.564 90.6884 104.776 75.4059 107.377Z" fill="#522500"/>
<path fill-rule="evenodd" clip-rule="evenodd" d="M72.5479 151.897C82.8439 145.882 105.455 139.014 127.621 152.026C127.667 152.053 127.71 152.083 127.749 152.115C109.198 160.695 90.662 160.53 72.5479 151.897Z" fill="#CF3341"/>
</svg>
