<svg width="200" height="200" viewBox="0 0 200 200" fill="none" xmlns="http://www.w3.org/2000/svg">
<circle cx="100" cy="100" r="100" fill="#FECE00"/>
<path d="M141.652 75.3836C136.646 77.9676 132.124 85.7197 134.385 87.9807C134.869 88.6267 137.615 88.1422 140.36 87.0117C145.044 85.0737 152.311 85.3967 158.61 87.8192C162.163 89.2727 162.324 84.4277 158.933 79.4211C155.057 73.9301 148.112 72.3151 141.652 75.3836Z" fill="#522500"/>
<path d="M43.3915 78.2905C41.4535 80.713 40 83.943 40 85.7195C40 88.3035 40.646 88.6265 43.7145 87.496C48.075 85.881 58.8956 86.0425 63.9021 87.819C66.8091 88.788 67.4552 88.465 67.4552 85.558C67.4552 75.0604 50.0131 69.8924 43.3915 78.2905Z" fill="#522500"/>
<path d="M54.1266 120.595C49.443 125.117 60.9096 136.099 76.8982 142.236C89.8183 147.404 112.913 147.404 125.994 142.559C137.784 138.199 149.897 129.478 149.897 125.602C149.897 121.241 145.213 120.111 140.368 123.179C113.397 140.46 87.7187 140.46 64.7856 123.341C59.6176 119.465 56.0646 118.496 54.1266 120.595Z" fill="#522500"/>
</svg>
