<svg width="205" height="205" viewBox="0 0 205 205" fill="none" xmlns="http://www.w3.org/2000/svg">
<path d="M102.64 204.271C158.829 204.271 204.379 158.729 204.379 102.55C204.379 46.3704 158.829 0.828125 102.64 0.828125C46.4518 0.828125 0.901855 46.3704 0.901855 102.55C0.901855 158.729 46.4518 204.271 102.64 204.271Z" fill="#EECD00"/>
<path d="M32.9436 60.3418C38.8903 60.3418 43.7124 53.4091 43.7124 44.856C43.7124 53.4091 48.5345 60.3418 54.4812 60.3418C48.5345 60.3418 43.7124 67.2744 43.7124 75.8276C43.7124 67.2771 38.8903 60.3418 32.9436 60.3418Z" fill="#C44732"/>
<path d="M43.7124 77.7988C42.6229 77.7988 41.7437 76.9171 41.7437 75.8304C41.7437 68.5041 37.7145 62.313 32.9436 62.313C31.8541 62.313 30.9749 61.4313 30.9749 60.3446C30.9749 59.2552 31.8568 58.3762 32.9436 58.3762C37.7145 58.3762 41.7437 52.1851 41.7437 44.8561C41.7437 43.7667 42.6256 42.8877 43.7124 42.8877C44.802 42.8877 45.6812 43.7694 45.6812 44.8561C45.6812 52.1851 49.7104 58.3762 54.4785 58.3762C55.5681 58.3762 56.4473 59.2579 56.4473 60.3446C56.4473 61.434 55.5654 62.313 54.4785 62.313C49.7104 62.313 45.6812 68.5041 45.6812 75.8304C45.6812 76.9171 44.802 77.7988 43.7124 77.7988ZM38.8175 60.3419C40.8186 61.7737 42.5096 63.912 43.7124 66.5141C44.9152 63.912 46.6062 61.7737 48.6046 60.3419C46.6035 58.9101 44.9126 56.7718 43.7124 54.1697C42.5096 56.7745 40.8186 58.9128 38.8175 60.3419Z" fill="#C44732"/>
<path opacity="0.53" d="M170.722 28.6987C177.882 42.4992 181.952 58.1388 181.952 74.7329C181.952 130.334 136.557 175.408 80.561 175.408C54.5222 175.408 30.7813 165.652 12.8279 149.633C29.662 182.074 63.7053 204.274 102.989 204.274C158.985 204.274 204.379 159.2 204.379 103.599C204.379 73.8511 191.377 47.1291 170.722 28.6987Z" fill="#E8BB37"/>
<path d="M115.491 159.321C115.491 159.321 115.483 159.321 115.478 159.321C113.846 159.313 112.53 157.986 112.538 156.355C112.562 150.571 116.718 145.41 122.641 143.803C126.19 142.84 129.936 143.215 133.186 144.865C134.639 145.604 135.222 147.384 134.48 148.837C133.741 150.288 131.961 150.873 130.508 150.131C128.569 149.15 126.319 148.923 124.189 149.503C120.82 150.417 118.461 153.246 118.447 156.382C118.436 158.008 117.115 159.321 115.491 159.321Z" fill="#332F2E"/>
<path d="M64.2959 111.211C64.0262 111.211 63.7699 111.184 63.5002 111.13C63.244 111.076 62.9878 110.995 62.7451 110.901C62.5024 110.793 62.2597 110.671 62.0439 110.523C61.8282 110.375 61.6124 110.213 61.4371 110.024C61.2483 109.836 61.073 109.633 60.9247 109.418C60.7764 109.188 60.655 108.959 60.5606 108.717C60.4527 108.474 60.3718 108.218 60.3314 107.962C60.2775 107.692 60.2505 107.422 60.2505 107.166C60.2505 106.896 60.2775 106.64 60.3314 106.371C60.3718 106.114 60.4527 105.858 60.5606 105.616C60.655 105.373 60.7764 105.144 60.9247 104.915C61.073 104.699 61.2483 104.483 61.4371 104.308C61.6124 104.119 61.8282 103.944 62.0439 103.809C62.2597 103.661 62.5024 103.526 62.7451 103.431C62.9878 103.324 63.244 103.256 63.5002 103.202C64.8217 102.933 66.2107 103.364 67.1519 104.308C67.3407 104.497 67.5025 104.699 67.6508 104.915C67.7991 105.144 67.9205 105.373 68.0284 105.616C68.1228 105.858 68.2037 106.114 68.2576 106.371C68.3116 106.64 68.3385 106.896 68.3385 107.166C68.3385 107.422 68.3116 107.692 68.2576 107.962C68.2037 108.218 68.1228 108.474 68.0284 108.717C67.9205 108.959 67.7991 109.188 67.6508 109.418C67.5025 109.633 67.3407 109.836 67.1519 110.024C66.3994 110.779 65.3612 111.211 64.2959 111.211Z" fill="#332F2E"/>
<path d="M77.9204 106.079C77.4754 106.079 77.025 105.98 76.5989 105.767L54.8186 94.8487C53.3595 94.1179 52.7689 92.3436 53.4998 90.8848C54.2306 89.4234 56.0052 88.8355 57.4642 89.5662L79.2446 100.484C80.7036 101.215 81.2942 102.989 80.5634 104.448C80.0456 105.484 79.0018 106.079 77.9204 106.079Z" fill="#332F2E"/>
<path d="M140.982 111.211C141.252 111.211 141.508 111.184 141.778 111.13C142.034 111.076 142.29 110.995 142.533 110.901C142.776 110.793 143.018 110.671 143.234 110.523C143.45 110.375 143.666 110.213 143.838 110.024C144.027 109.836 144.202 109.633 144.351 109.418C144.499 109.188 144.62 108.959 144.715 108.717C144.823 108.474 144.904 108.218 144.944 107.962C144.998 107.692 145.025 107.422 145.025 107.166C145.025 106.896 144.998 106.64 144.944 106.371C144.904 106.114 144.823 105.858 144.715 105.616C144.62 105.373 144.499 105.144 144.351 104.915C144.202 104.699 144.027 104.483 143.838 104.308C143.663 104.119 143.447 103.944 143.234 103.809C143.018 103.661 142.776 103.526 142.533 103.431C142.29 103.324 142.034 103.256 141.778 103.202C140.456 102.933 139.067 103.364 138.126 104.308C137.937 104.497 137.776 104.699 137.627 104.915C137.479 105.144 137.357 105.373 137.25 105.616C137.155 105.858 137.074 106.114 137.02 106.371C136.966 106.64 136.939 106.896 136.939 107.166C136.939 107.422 136.966 107.692 137.02 107.962C137.074 108.218 137.155 108.474 137.25 108.717C137.357 108.959 137.479 109.188 137.627 109.418C137.776 109.633 137.937 109.836 138.126 110.024C138.881 110.779 139.92 111.211 140.982 111.211Z" fill="#332F2E"/>
<path d="M127.363 106.079C126.279 106.079 125.238 105.484 124.72 104.448C123.99 102.989 124.578 101.215 126.039 100.484L147.82 89.5662C149.279 88.8355 151.053 89.4234 151.784 90.8848C152.515 92.3436 151.927 94.1179 150.468 94.8487L128.688 105.767C128.259 105.98 127.808 106.079 127.363 106.079Z" fill="#332F2E"/>
</svg>
