<svg width="206" height="201" viewBox="0 0 206 201" fill="none" xmlns="http://www.w3.org/2000/svg">
<path d="M103.242 199.075C159.994 199.075 206 154.612 206 99.7642C206 44.9164 159.994 0.453369 103.242 0.453369C46.4903 0.453369 0.483887 44.9164 0.483887 99.7642C0.483887 154.612 46.4903 199.075 103.242 199.075Z" fill="#EECD00"/>
<path d="M29.5031 79.7619C29.5031 79.7619 29.495 79.7619 29.4896 79.7619C27.8418 79.7538 26.5122 78.4137 26.5203 76.7661C26.5446 70.9256 30.741 65.7106 36.7201 64.0874C40.3097 63.1112 44.0881 63.4968 47.3702 65.1606C48.8401 65.9075 49.428 67.7006 48.6809 69.1702C47.9339 70.6398 46.1377 71.2249 44.6706 70.4807C42.7072 69.483 40.4364 69.2619 38.2843 69.8443C34.8861 70.7692 32.5021 73.6248 32.4886 76.7931C32.4778 78.4353 31.1429 79.7619 29.5031 79.7619Z" fill="#332F2E"/>
<path d="M61.4828 49.7502C61.3291 49.7502 61.1726 49.7394 61.0135 49.7124C59.3846 49.459 58.2734 47.9301 58.5297 46.3014C59.7406 38.6111 66.9791 33.3422 74.6734 34.5475C79.6357 35.3295 83.8456 38.727 85.6579 43.4162C86.2513 44.9532 85.488 46.6789 83.9481 47.2748C82.4189 47.8653 80.6875 47.105 80.0888 45.5653C79.0424 42.858 76.6125 40.895 73.743 40.442C71.5962 40.113 69.4387 40.6199 67.6776 41.9062C65.9165 43.187 64.7622 45.0772 64.4224 47.229C64.1959 48.7013 62.9256 49.7502 61.4828 49.7502Z" fill="#332F2E"/>
<path d="M176.984 79.7619C175.342 79.7619 174.007 78.4352 174.001 76.7931C173.988 73.6247 171.601 70.7692 168.203 69.8443C166.045 69.2645 163.78 69.4857 161.817 70.4806C160.352 71.2249 158.551 70.6397 157.806 69.1702C157.059 67.7006 157.647 65.9047 159.117 65.1605C162.397 63.4968 166.178 63.1139 169.767 64.0873C175.749 65.7106 179.945 70.9256 179.97 76.7661C179.978 78.4164 178.646 79.7565 177 79.7619C176.992 79.7619 176.99 79.7619 176.984 79.7619Z" fill="#332F2E"/>
<path d="M145.004 49.7501C143.561 49.7501 142.291 48.7012 142.062 47.2316C141.722 45.0798 140.565 43.1896 138.807 41.9088C137.046 40.6226 134.88 40.1129 132.741 40.4446C129.874 40.8976 127.445 42.8606 126.395 45.5679C125.799 47.1049 124.073 47.868 122.536 47.2775C120.999 46.6842 120.233 44.9558 120.826 43.4188C122.639 38.7296 126.846 35.3321 131.811 34.5501C139.502 33.3448 146.744 38.6137 147.955 46.304C148.211 47.9327 147.1 49.4616 145.471 49.7151C145.314 49.7393 145.158 49.7501 145.004 49.7501Z" fill="#332F2E"/>
<path opacity="0.53" d="M172.024 25.1342C179.255 38.9077 183.359 54.5202 183.359 71.0819C183.359 126.578 137.533 171.568 81.0032 171.568C54.7163 171.568 30.7515 161.832 12.6255 145.841C29.6215 178.221 63.9856 200.38 103.644 200.38C160.174 200.38 206 155.392 206 99.8964C206.003 70.2002 192.877 43.5294 172.024 25.1342Z" fill="#E8BB37"/>
<path d="M174.932 96.4935C180.093 98.2327 182.868 103.828 181.129 108.989C179.389 114.15 173.793 116.925 168.631 115.185L158.707 111.842C158.707 111.842 160.856 106.859 162.28 102.639C163.685 98.4727 164.699 93.0474 164.699 93.0474L174.932 96.4935Z" fill="#CA68A0"/>
<path d="M173.996 107.581C173.891 107.581 173.783 107.565 173.678 107.53L160.231 102.997C159.713 102.822 159.433 102.258 159.608 101.738C159.783 101.22 160.344 100.945 160.867 101.115L174.314 105.648C174.832 105.823 175.112 106.387 174.937 106.907C174.797 107.317 174.411 107.581 173.996 107.581Z" fill="#C34B90"/>
<path d="M103.288 153.319C66.9764 153.319 37.4343 119.238 37.4343 77.3457C37.4343 75.6982 38.772 74.3635 40.4171 74.3635C42.0649 74.3635 43.3998 75.7009 43.3998 77.3457C43.3998 115.948 70.2639 147.351 103.285 147.351C136.306 147.351 163.17 115.946 163.17 77.3457C163.17 75.6982 164.508 74.3635 166.153 74.3635C167.801 74.3635 169.136 75.7009 169.136 77.3457C169.141 119.235 139.602 153.319 103.288 153.319Z" fill="#332F2E"/>
</svg>
