<svg width="217" height="207" viewBox="0 0 217 207" fill="none" xmlns="http://www.w3.org/2000/svg">
<path d="M108.274 206.188C165.014 206.188 211.01 160.164 211.01 103.391C211.01 46.6175 165.014 0.593567 108.274 0.593567C51.534 0.593567 5.53735 46.6175 5.53735 103.391C5.53735 160.164 51.534 206.188 108.274 206.188Z" fill="#EECD00"/>
<path opacity="0.53" d="M178.262 33.9003C185.347 47.3988 189.371 62.6958 189.371 78.9259C189.371 133.308 144.464 177.393 89.0696 177.393C63.3114 177.393 39.8266 167.85 22.0647 152.183C38.7182 183.913 72.3946 205.625 111.255 205.625C166.649 205.625 211.556 161.54 211.556 107.158C211.558 78.063 198.697 51.9261 178.262 33.9003Z" fill="#E8BB37"/>
<path d="M169.141 119.869C178.23 119.869 185.598 117.422 185.598 114.403C185.598 111.385 178.23 108.938 169.141 108.938C160.053 108.938 152.685 111.385 152.685 114.403C152.685 117.422 160.053 119.869 169.141 119.869Z" fill="#E8BB37"/>
<path d="M216.534 42.1623C220.056 68.3531 167.345 114.277 167.345 114.277C167.345 114.277 123.714 62.2186 132.59 36.9069C141.433 11.6868 174.079 44.5433 174.079 44.5433C174.079 44.5433 213.036 16.1683 216.534 42.1623Z" fill="#BE2D86"/>
<path d="M47.4371 119.869C56.5258 119.869 63.8937 117.422 63.8937 114.403C63.8937 111.385 56.5258 108.938 47.4371 108.938C38.3483 108.938 30.9805 111.385 30.9805 114.403C30.9805 117.422 38.3483 119.869 47.4371 119.869Z" fill="#E8BB37"/>
<path d="M84.2555 37.0767C92.589 62.553 48.9717 114.29 48.9717 114.29C48.9717 114.29 -3.81238 68.0538 0.278843 41.9601C4.35389 15.958 42.7176 44.5298 42.7176 44.5298C42.7176 44.5298 75.9868 11.792 84.2555 37.0767Z" fill="#BE2D86"/>
<path d="M5.7508 49.0436C8.50435 31.4761 24.4377 34.898 37.6607 41.1052C27.1104 34.3964 3.42875 21.839 0.276054 41.96C-1.0778 50.6022 3.8198 61.4528 10.9612 72.1038C6.8835 63.8176 4.68551 55.8522 5.7508 49.0436Z" fill="#C34B90"/>
<path d="M136.692 44.5675C142.668 27.5285 157.79 32.8244 169.715 40.5498C160.524 32.6491 139.434 17.3871 132.59 36.9069C129.65 45.2902 132.484 56.6072 137.574 67.9971C135.074 59.3145 134.375 51.1739 136.692 44.5675Z" fill="#C34B90"/>
<path d="M108.274 154.271C112.989 154.271 116.812 151.192 116.812 147.395C116.812 143.597 112.989 140.519 108.274 140.519C103.558 140.519 99.7354 143.597 99.7354 147.395C99.7354 151.192 103.558 154.271 108.274 154.271Z" fill="#332F2E"/>
<path d="M63.8934 21.6098C63.1598 21.6098 62.4397 21.324 62.0001 20.7982C61.2989 19.9569 61.5767 18.819 62.6204 18.2527C68.3891 15.1356 74.4923 12.6063 80.7707 10.7376C81.9519 10.3817 83.2572 10.8671 83.6941 11.8216C84.131 12.7708 83.5296 13.8251 82.3484 14.1756C76.4098 15.9472 70.6249 18.3417 65.1582 21.297C64.7699 21.51 64.3276 21.6098 63.8934 21.6098Z" fill="#F7F7F8"/>
</svg>
