<svg width="204" height="205" viewBox="0 0 204 205" fill="none" xmlns="http://www.w3.org/2000/svg">
<path d="M102.242 204.158C158.43 204.158 203.98 158.666 203.98 102.55C203.98 46.4329 158.43 0.941406 102.242 0.941406C46.0528 0.941406 0.50293 46.4329 0.50293 102.55C0.50293 158.666 46.0528 204.158 102.242 204.158Z" fill="#EECD00"/>
<path d="M163.227 110.035C162.817 110.035 162.401 109.922 162.01 109.677L141.945 97.1919C140.6 96.356 140.057 94.3255 140.732 92.6591C141.406 90.9873 143.04 90.3159 144.383 91.1518L164.448 103.636C165.794 104.472 166.336 106.503 165.662 108.169C165.185 109.353 164.225 110.035 163.227 110.035Z" fill="#332F2E"/>
<path d="M41.2564 110.035C40.2585 110.035 39.2984 109.353 38.821 108.169C38.1468 106.503 38.6889 104.472 40.0347 103.636L60.0998 91.1516C61.4428 90.3157 63.0799 90.9897 63.7514 92.6589C64.4256 94.3253 63.8835 96.3557 62.5377 97.1916L42.4727 109.676C42.0843 109.919 41.669 110.035 41.2564 110.035Z" fill="#332F2E"/>
<path opacity="0.53" d="M170.341 29.0009C177.499 42.8014 181.566 58.4409 181.566 75.035C181.566 130.636 136.196 175.71 80.2266 175.71C54.2014 175.71 30.4739 165.954 12.5259 149.935C29.352 182.376 63.3763 204.576 102.641 204.576C158.61 204.576 203.98 159.502 203.98 103.901C203.98 74.1532 190.986 47.4312 170.341 29.0009Z" fill="#E8BB37"/>
<path d="M85.701 170.916C85.2641 170.916 84.8192 170.786 84.4093 170.509C83.0851 169.621 82.5942 167.572 83.3089 165.933C87.0738 157.285 94.3285 151.917 102.244 151.917C110.138 151.917 117.384 157.269 121.157 165.884C121.875 167.524 121.387 169.573 120.065 170.465C118.749 171.353 117.093 170.751 116.373 169.109C113.555 162.673 108.139 158.674 102.244 158.674C96.3323 158.674 90.9115 162.686 88.0986 169.144C87.6051 170.274 86.6692 170.916 85.701 170.916Z" fill="#332F2E"/>
<path d="M52.6531 130.992C52.0571 130.992 51.4611 130.957 50.8651 130.881C49.3683 130.698 48.2788 129.042 48.4271 127.187C48.5754 125.332 49.8915 123.954 51.4045 124.162C55.7627 124.682 60.1884 122.382 63.2251 117.971C64.2014 116.547 65.9193 116.382 67.0628 117.596C68.2063 118.807 68.3411 120.939 67.3649 122.358C63.5784 127.861 58.1818 130.992 52.6531 130.992Z" fill="#332F2E"/>
<path d="M151.833 130.992C146.304 130.992 140.907 127.862 137.118 122.358C136.142 120.94 136.277 118.807 137.42 117.596C138.566 116.385 140.282 116.555 141.258 117.971C144.297 122.385 148.718 124.688 153.081 124.162C154.589 123.957 155.91 125.335 156.059 127.187C156.207 129.043 155.115 130.698 153.621 130.882C153.025 130.957 152.429 130.992 151.833 130.992Z" fill="#332F2E"/>
<path d="M55.4288 153.038C55.4288 157.846 52.2869 161.745 48.4114 161.745C44.5359 161.745 41.394 157.846 41.394 153.038C41.394 148.23 48.4114 133.786 48.4114 133.786C48.4114 133.786 55.4288 148.23 55.4288 153.038Z" fill="#9BCBEE"/>
<path d="M178.435 54.1618C177.906 54.1618 177.386 53.8787 177.027 53.334C172.342 46.2018 166.673 39.7653 160.185 34.2079C159.359 33.4987 159.154 32.0993 159.723 31.0746C160.293 30.0473 161.423 29.7965 162.248 30.5002C169.02 36.303 174.939 43.0281 179.842 50.4892C180.476 51.4519 180.358 52.8702 179.581 53.6575C179.241 53.9973 178.837 54.1618 178.435 54.1618Z" fill="#F7F7F8"/>
<path d="M154.276 29.2087C153.974 29.2087 153.664 29.1143 153.383 28.9174C150.543 26.9194 147.569 25.0668 144.537 23.4139C143.62 22.9151 143.202 21.5857 143.607 20.4478C144.009 19.3099 145.077 18.7895 145.996 19.2937C149.138 21.006 152.226 22.9259 155.171 24.9995C156.042 25.6143 156.35 26.9868 155.856 28.068C155.522 28.7988 154.91 29.2087 154.276 29.2087Z" fill="#F7F7F8"/>
</svg>
