<svg width="208" height="205" viewBox="0 0 208 205" fill="none" xmlns="http://www.w3.org/2000/svg">
<path d="M103.809 204.158C160.865 204.158 207.117 158.666 207.117 102.55C207.117 46.4329 160.865 0.941406 103.809 0.941406C46.7536 0.941406 0.500977 46.4329 0.500977 102.55C0.500977 158.666 46.7536 204.158 103.809 204.158Z" fill="#EECD00"/>
<path opacity="0.53" d="M172.597 29.1384C179.827 42.9389 183.935 58.5784 183.935 75.1725C183.935 130.774 138.108 175.848 81.5784 175.848C55.2915 175.848 31.3267 166.092 13.2007 150.072C30.1967 182.513 64.5608 204.713 104.219 204.713C160.749 204.713 206.575 159.639 206.575 104.038C206.572 74.2934 193.449 47.5688 172.597 29.1384Z" fill="#E8BB37"/>
<path d="M207.106 58.7453C206.836 58.0901 206.119 57.6101 205.256 57.513L178.538 54.4391L166.588 35.2726C165.819 34.0349 163.251 34.0349 162.483 35.2726L150.533 54.4391L123.814 57.513C122.951 57.6128 122.237 58.0901 121.964 58.7453C121.697 59.4006 121.918 60.1206 122.544 60.6005L141.878 75.5201L137.315 96.5849C137.167 97.2644 137.52 97.952 138.224 98.3564C138.933 98.7636 139.869 98.8175 140.635 98.4939L164.535 88.5494L188.435 98.4939C188.77 98.6341 189.134 98.7015 189.501 98.7015C189.975 98.7015 190.45 98.5856 190.846 98.3537C191.55 97.9492 191.904 97.2617 191.755 96.5822L187.189 75.5174L206.526 60.5978C207.149 60.1206 207.373 59.3979 207.106 58.7453Z" fill="#DA9500"/>
<path d="M85.6532 58.7453C85.3835 58.0901 84.6661 57.6101 83.8031 57.513L57.0847 54.4391L45.1347 35.2726C44.366 34.0349 41.7986 34.0349 41.03 35.2726L29.0799 54.4391L2.36421 57.513C1.5012 57.6128 0.786523 58.0901 0.514134 58.7453C0.247139 59.4006 0.468277 60.1206 1.09396 60.6005L20.4282 75.5174L15.8623 96.5822C15.714 97.2617 16.0673 97.9492 16.7712 98.3537C17.1703 98.5829 17.6423 98.7015 18.1169 98.7015C18.481 98.7015 18.8478 98.6315 19.1822 98.4939L43.0823 88.5494L66.9824 98.4939C67.751 98.8175 68.6869 98.7636 69.3934 98.3564C70.0973 97.952 70.4506 97.2644 70.3023 96.5849L65.7391 75.5201L85.0733 60.6005C85.699 60.1206 85.9229 59.3979 85.6532 58.7453Z" fill="#DA9500"/>
<path d="M7.41529 65.0443C6.7923 64.5616 6.56846 63.8417 6.83546 63.1891C7.10515 62.5339 7.82252 62.0539 8.68554 61.9568L35.4039 58.8828L47.354 39.7163C47.4403 39.5788 47.5562 39.4602 47.6803 39.3524L45.1371 35.2726C44.3685 34.0349 41.801 34.0349 41.0324 35.2726L29.0823 54.4391L2.36665 57.513C1.50364 57.6128 0.78896 58.0901 0.516571 58.7453C0.249576 59.4006 0.470735 60.1206 1.09642 60.6005L20.4306 75.5173L15.8647 96.5822C15.7164 97.2617 16.0697 97.9492 16.7736 98.3537C17.1727 98.5829 17.6447 98.7015 18.1194 98.7015C18.4834 98.7015 18.8502 98.6314 19.1846 98.4939L23.0871 96.8707L26.7522 79.9612L7.41529 65.0443Z" fill="#DE9E00"/>
<path d="M128.863 65.0443C128.24 64.5616 128.016 63.8417 128.283 63.1891C128.553 62.5339 129.27 62.0539 130.133 61.9568L156.852 58.8828L168.802 39.7163C168.888 39.5788 169.004 39.4602 169.128 39.3524L166.585 35.2726C165.816 34.0349 163.249 34.0349 162.48 35.2726L150.53 54.4391L123.814 57.513C122.951 57.6128 122.237 58.0901 121.964 58.7453C121.697 59.4006 121.918 60.1206 122.544 60.6005L141.878 75.5173L137.312 96.5822C137.164 97.2617 137.517 97.9492 138.221 98.3537C138.62 98.5829 139.092 98.7015 139.567 98.7015C139.931 98.7015 140.298 98.6314 140.632 98.4939L144.535 96.8707L148.2 79.9612L128.863 65.0443Z" fill="#DE9E00"/>
<path d="M161.429 123.115C160.849 122.862 146.744 116.927 103.809 116.927C65.4048 116.927 47.1736 122.781 46.4157 123.029C45.4206 123.358 44.8488 124.191 45.043 125.03C50.24 147.489 74.9572 163.789 103.809 163.789C132.661 163.789 157.378 147.489 162.575 125.03C162.753 124.261 162.292 123.49 161.429 123.115Z" fill="#332F2E"/>
<path d="M154.603 141.433C144.346 135.007 131.439 131.197 117.547 131.197C96.3276 131.197 77.379 140.033 66.7532 153.629C77.0096 160.055 89.917 163.865 103.809 163.865C125.028 163.865 143.977 155.031 154.603 141.433Z" fill="#CA68A0"/>
<path d="M31.3747 76.1456L28.1384 73.584L44.7407 60.4414L47.977 63.0031L31.3747 76.1456Z" fill="#E5B449"/>
<path d="M42.7207 76.1456L39.4844 73.584L56.0866 60.4414L59.3229 63.0031L42.7207 76.1456Z" fill="#E5B449"/>
<path d="M152.178 76.1456L148.942 73.584L165.544 60.4414L168.78 63.0031L152.178 76.1456Z" fill="#E5B449"/>
<path d="M163.524 76.1456L160.287 73.584L176.89 60.4414L180.126 63.0031L163.524 76.1456Z" fill="#E5B449"/>
<path d="M55.0189 24.0662C54.3258 24.0662 53.6408 23.8181 53.1904 23.349C52.4272 22.5481 52.6267 21.4128 53.6354 20.8088C63.1177 15.1355 73.4362 11.1474 84.3021 8.96325C85.5076 8.71248 86.7724 9.30037 87.0826 10.2738C87.3954 11.2445 86.6538 12.2287 85.4294 12.4741C75.1595 14.5422 65.3913 18.32 56.397 23.7021C55.9844 23.9475 55.499 24.0662 55.0189 24.0662Z" fill="#F7F7F8"/>
</svg>
