<svg width="259" height="260" viewBox="0 0 259 260" fill="none" xmlns="http://www.w3.org/2000/svg">
<path d="M237.33 151.024C248.922 91.286 209.892 33.4617 150.154 21.8694C90.4158 10.2771 32.5911 49.3067 20.9989 109.044C9.40671 168.782 48.4368 226.607 108.175 238.199C167.913 249.791 225.738 210.761 237.33 151.024Z" fill="white"/>
<path d="M95.0479 43.431C222.086 1.71905 276.548 180.37 151.121 218.311C37.6549 252.631 -16.0031 74.431 95.0479 43.431Z" fill="#FFE700"/>
<path d="M70.6219 150.768L174.606 145.342L178.606 159.342L74.5339 161.682L70.6219 150.768Z" fill="white"/>
<path d="M78.6079 163.506C112.646 164.141 146.519 161.23 180.555 161.742C167.403 221.186 89.3799 228.681 78.6079 163.506Z" fill="#DF2E27"/>
<path d="M71.7679 78.3351C60.7579 78.3271 60.6109 86.6701 64.4359 93.5361C66.9769 98.0951 96.119 118.871 99.273 116.009C105.616 110.253 126.46 77.9071 118.12 70.7661C98.9399 54.3421 95.64 80.0761 92.94 88.0091C92.94 88.0091 81.6059 78.3431 71.7679 78.3351Z" fill="#DF2E27"/>
<path d="M164.181 88.6471L160.606 76.6761L151.939 67.3431L138.756 71.6761V88.6471L150.039 104.502L162.272 123.343L171.689 114.505L186.606 101.342L194.272 88.6471L191.939 78.3431L180.556 75.3431L166.939 87.0091L164.181 88.6471Z" fill="#DF2E27"/>
<path d="M107.407 204.634V196.491L118.606 184.335L130.436 187.008L141.606 182.153L148.939 184.341L153.464 203.341L146.606 207.838L135.272 209.42L125.525 207.838L107.407 204.634Z" fill="#D05395"/>
<path d="M221.501 107.982C222.393 101.984 219.985 98.3031 214.277 96.9391C209.57 98.2411 210.627 152.341 207.978 160.767C197.542 193.951 167.04 214.918 132.114 211.491C106.908 209.018 77.9719 198.219 62.1159 177.476C58.3529 172.554 41.9159 127.45 39.2809 128.163C32.7809 129.921 42.2589 159.656 43.1169 162.327C52.5299 191.659 79.5429 208.41 107.664 216.674C181.006 238.226 231.512 179.093 221.501 107.982C223.586 122.793 221.14 105.414 221.501 107.982Z" fill="#FFB01F"/>
<path d="M182.809 54.1351C156.377 33.0351 123.704 31.8961 91.9439 39.5161C85.6749 41.0201 88.3339 50.6621 94.6019 49.1591C122.477 42.4711 152.331 42.5211 175.737 61.2061C180.723 65.1861 187.849 58.1581 182.809 54.1351Z" fill="white"/>
<path fill-rule="evenodd" clip-rule="evenodd" d="M71.0559 146.777C78.3909 145.204 85.7509 145.595 93.0469 145.148C99.2649 144.766 105.485 144.408 111.704 144.047C120.43 143.539 129.152 142.954 137.883 142.57C142.562 142.364 147.257 142.557 151.943 142.487C158.804 142.387 165.664 142.243 172.523 142.046C173.786 142.01 175.04 141.637 176.65 141.359C178.609 144.201 180.912 146.953 180.603 151.122C180.416 153.666 181.034 156.286 181.421 158.852C182.006 162.737 181.525 166.367 179.995 170.053C178.671 173.242 178.289 176.81 177.131 180.084C175.201 185.545 172.85 190.888 168.969 195.261C164.624 200.159 159.832 204.491 153.861 207.59C148.918 210.155 143.817 211.943 138.427 212.722C131.038 213.791 123.712 213.552 116.419 211.202C112.588 209.968 108.588 209.123 105.049 207.217C101.403 205.256 98.1049 202.659 94.5369 200.538C92.5229 199.34 90.8559 197.893 89.5279 195.995C85.2739 189.916 80.6529 184.054 76.8849 177.687C74.7739 174.119 73.8809 169.768 72.7839 165.678C71.7389 161.781 71.1369 157.764 70.3509 153.798C69.8929 151.492 70.0049 149.233 71.0559 146.777ZM105.084 201.831C104.899 195.58 106.582 190.557 110.497 186.528C114.604 182.304 118.812 180.101 125.536 183.346C126.323 183.727 127.138 184.05 127.944 184.391C130.036 185.278 131.978 185.188 133.714 183.549C134.269 183.024 134.886 182.562 135.488 182.088C139.018 179.309 145.62 179.615 148.873 182.723C149.181 183.018 149.443 183.4 149.618 183.791C151.972 189.031 154.152 194.323 154.245 200.313C154.59 200.313 154.965 200.431 155.188 200.296C159.417 197.731 163.494 194.936 166.532 190.963C170.477 185.802 173.118 179.904 175.702 173.992C175.916 173.502 175.997 172.954 176.127 172.43C176.597 170.545 176.986 168.635 177.553 166.781C178.104 164.984 178.711 163.25 177.307 161.512C175.543 161.869 173.846 162.552 172.177 162.491C163.989 162.188 155.819 162.139 147.643 162.801C144.166 163.083 140.654 162.919 137.174 163.186C132.063 163.58 126.974 164.276 121.862 164.669C113.148 165.336 104.417 165.798 95.7039 166.483C90.9109 166.861 86.1349 167.466 81.3639 168.071C79.2369 168.341 78.8589 168.878 79.5489 170.913C80.4229 173.486 81.2139 176.206 82.6899 178.433C86.1819 183.7 89.9319 188.813 93.8199 193.797C96.6149 197.377 100.67 199.387 105.084 201.831ZM176.232 145.395C173.9 145.608 172.086 145.774 170.273 145.942C168.207 146.133 166.145 146.372 164.076 146.508C159.183 146.831 154.289 147.17 149.389 147.381C145.35 147.554 141.298 147.451 137.26 147.648C128.752 148.065 120.248 148.601 111.74 149.079C109.67 149.194 107.597 149.281 105.525 149.366C102.467 149.49 99.4099 149.631 96.3509 149.706C94.2749 149.756 92.1899 149.582 90.1219 149.718C84.7029 150.073 79.2919 150.602 73.3829 149.423C73.7659 151.347 74.0219 152.911 74.3989 154.444C74.7559 155.902 75.2299 157.331 75.6709 158.767C76.0209 159.915 76.4419 161.042 76.7539 162.199C77.2199 163.921 78.2039 164.271 79.9549 164.004C85.7889 163.114 91.6349 162.222 97.5109 161.711C109.59 160.662 121.688 159.83 133.782 158.974C137.805 158.688 141.853 158.738 145.869 158.396C153.941 157.708 161.997 157.753 170.072 158.295C172.539 158.46 175.033 158.222 178.043 158.157C177.639 153.55 177.071 149.415 176.232 145.395ZM108.758 203.127C108.715 203.08 108.887 203.456 109.149 203.536C110.498 203.951 111.917 204.168 113.226 204.673C120.249 207.394 127.548 207.609 134.899 206.991C139.814 206.577 144.652 205.622 149.159 203.456C151.66 202.254 151.919 201.792 151.229 199.118C150.683 197.004 149.81 194.958 149.443 192.82C149.069 190.648 148.474 188.693 147.514 186.664C146.57 184.668 145.369 183.8 143.45 183.43C141.331 183.022 139.57 183.696 138.11 185.238C137.583 185.794 137.089 186.381 136.558 186.934C134.177 189.414 131.647 189.838 128.576 188.283C127.209 187.59 125.839 186.903 124.482 186.191C122.47 185.135 120.365 185.126 118.503 186.264C114.648 188.621 111.91 191.974 110.58 196.349C109.925 198.503 109.405 200.701 108.758 203.127Z" fill="black"/>
<path fill-rule="evenodd" clip-rule="evenodd" d="M91.3129 86.549C92.3709 86.262 92.4749 85.564 92.4549 84.544C92.3139 77.211 95.1099 71.07 100.714 66.453C102.572 64.923 105.234 63.618 107.551 63.58C110.631 63.53 113.917 64.596 116.028 67.261C119.32 71.416 120.806 75.863 120.148 81.529C119.521 86.926 117.992 91.777 115.488 96.379C113.363 100.285 110.96 104.057 107.883 107.362C106.264 109.101 104.869 111.047 104.126 113.419C103.744 114.643 102.948 115.766 102.211 116.848C100.089 119.968 99.9709 120.056 96.6689 118.207C92.0989 115.648 87.5839 112.983 83.1109 110.257C79.8469 108.266 76.7529 105.992 73.4639 104.047C68.9289 101.364 65.6379 97.303 62.4379 93.397C60.2699 90.749 58.4849 87.243 59.8979 83.057C61.1569 79.325 63.4669 76.987 67.0429 76.116C69.1989 75.591 71.6109 75.718 73.8429 76.02C76.4249 76.37 78.9459 77.2 81.4729 77.897C82.3039 78.127 83.2459 78.41 83.8369 78.98C86.4259 81.474 88.9039 84.083 91.4229 86.65C88.5649 85.724 86.1509 84.098 83.9149 82.11C82.9649 81.266 81.8079 80.497 80.6099 80.123C78.3269 79.409 75.9679 78.855 73.5999 78.519C71.9089 78.279 70.1039 78.251 68.4349 78.568C63.5899 79.49 61.4689 84.302 64.3419 88.253C66.5109 91.236 68.9359 94.214 71.8189 96.456C77.0699 100.537 82.7809 104.022 88.2299 107.852C91.0829 109.857 93.7869 112.075 96.5749 114.176C97.0709 114.55 97.6469 114.818 98.4409 115.284C99.1929 114.03 99.8969 112.946 100.514 111.814C104.121 105.198 107.626 98.525 111.333 91.966C113.531 88.077 114.611 83.887 115.255 79.562C115.49 77.98 115.402 76.283 115.113 74.702C113.949 68.35 108.645 66.137 103.352 69.741C99.9779 72.038 97.7159 75.211 96.4239 79.056C95.3839 82.154 94.4479 85.285 93.3649 88.711C92.6149 87.919 91.9629 87.234 91.3129 86.549Z" fill="black"/>
<path fill-rule="evenodd" clip-rule="evenodd" d="M163.705 90.6471C164.443 87.3981 162.991 84.9411 161.602 82.4611C159.851 79.3291 158.996 75.7781 156.551 72.9401C153.266 69.1261 148.2 68.4691 144.065 69.8041C143.962 69.8371 143.864 69.8921 143.768 69.9431C140.639 71.6381 137.45 79.8221 138.615 83.2241C141.405 91.3701 145.781 98.6411 150.804 105.585C154.323 110.449 157.653 115.452 160.995 120.441C161.32 120.928 161.133 121.758 161.211 122.772C158.13 121.21 155.826 119.512 154.163 116.943C150.491 111.273 146.745 105.65 142.992 100.032C142.387 99.1271 141.593 98.3491 140.886 97.5121C137.426 93.4211 135.271 88.6871 134.194 83.4801C133.938 82.2421 134.084 80.8721 134.28 79.5981C134.833 75.9941 136.096 72.6271 138.348 69.7351C141.189 66.0851 147.394 64.5501 151.635 66.3041C152.546 66.6801 153.458 67.0601 154.394 67.3591C156.143 67.9201 157.3 69.0761 158.418 70.5311C161.555 74.6091 162.715 79.591 164.947 84.076C165.183 84.549 165.367 85.0501 165.688 85.8051C166.26 85.4591 166.829 85.3041 167.077 84.9341C169.761 80.9451 173.715 78.3891 177.41 75.5041C181.254 72.5031 189.569 72.9101 193.211 76.6061C195.182 78.6081 196.247 81.2951 196.227 84.0261C196.203 87.0491 195.478 90.0681 195.016 93.0831C194.954 93.4841 194.7 93.8941 194.437 94.2211C191.793 97.5001 189.32 100.946 186.417 103.981C183.127 107.421 179.308 110.355 175.976 113.761C173.015 116.787 169.637 119.263 166.432 121.973C164.918 123.252 163.335 124.031 161.312 124.288C162.831 122.886 164.384 121.519 165.863 120.076C171.232 114.841 176.976 109.958 181.231 103.674C183.862 99.7891 186.625 95.9901 189.164 92.0451C191.048 89.1171 191.769 85.8941 190.911 82.3761C189.805 77.8381 183.497 75.2881 179.464 77.7051C176.195 79.6641 173.085 81.9171 170.056 84.2351C169.08 84.9821 168.535 86.3291 167.882 87.4521C167.043 88.8951 166.179 90.2591 163.705 90.6471Z" fill="black"/>
<path d="M216.471 172.516C216.471 172.516 216.215 173.025 215.718 174.009C215.229 174.975 214.398 176.55 213.303 178.427C211.087 182.218 207.546 187.66 202.042 193.766C196.519 199.817 188.993 206.557 179.04 212.253C169.133 217.952 156.829 222.633 142.807 224.535C135.805 225.45 128.398 225.662 120.801 224.959C113.208 224.268 105.406 222.691 97.7529 219.968C93.9209 218.612 90.1329 217.029 86.3949 215.138L85.0499 214.456L83.6429 213.699C82.6899 213.2 81.8049 212.666 80.8819 212.146C79.0709 211.069 77.2679 209.951 75.5219 208.728C68.4969 203.901 61.9749 198.012 56.3429 191.197C50.7039 184.392 45.9409 176.681 42.3399 168.355C38.7229 160.034 36.3139 151.094 35.1629 141.933C32.7719 123.633 35.9099 104.251 44.5529 87.6051C48.8369 79.3611 54.0429 71.5401 60.2949 64.6931C66.5149 57.8271 73.6599 51.8541 81.4879 47.1531C97.0999 37.6271 115.418 33.5951 132.799 34.8491C141.499 35.4621 149.942 37.3431 157.888 40.0221C161.863 41.3651 165.718 42.9121 169.448 44.6071L170.148 44.922L170.862 45.2591L172.213 45.908C173.118 46.353 174.064 46.8421 174.968 47.3161C176.763 48.2861 178.536 49.2741 180.245 50.3431C193.982 58.8221 204.874 70.1661 212.318 82.2191C214.199 85.2241 215.868 88.2751 217.361 91.3281C218.822 94.3961 220.094 97.4671 221.191 100.515C223.368 106.613 224.911 112.601 225.746 118.328C227.498 129.8 226.476 140.008 224.881 148.083C223.212 156.188 220.917 162.267 219.263 166.337C218.43 168.374 217.725 169.907 217.235 170.932C216.742 171.956 216.487 172.484 216.487 172.484L216.471 172.516ZM211.701 170.149C211.701 170.149 211.931 169.648 212.378 168.676C212.822 167.705 213.457 166.251 214.205 164.323C214.956 162.398 215.758 159.974 216.551 157.089C217.321 154.197 217.999 150.821 218.508 147.017C219.52 139.408 219.569 130.033 217.885 119.544C217.023 114.307 215.775 108.769 213.795 103.131C212.815 100.312 211.671 97.466 210.355 94.618C209.066 91.758 207.614 88.886 205.959 86.048C202.644 80.38 198.634 74.773 193.84 69.5201C189.057 64.26 183.465 59.382 177.153 55.17C175.583 54.104 173.949 53.1131 172.291 52.1341C171.456 51.6561 170.653 51.2001 169.785 50.7311L168.459 50.032L167.167 49.3741C163.654 47.6051 160.016 45.982 156.263 44.533C148.759 41.643 140.761 39.5301 132.455 38.5381C124.16 37.5491 115.53 37.7971 107.092 39.6441C98.6639 41.4981 90.4649 44.914 83.0859 49.712C75.7009 54.508 69.1099 60.5811 63.4899 67.4481C57.8869 74.3381 53.1109 81.9171 49.2849 89.9711C45.4049 97.9271 42.6729 106.411 41.1909 115.078C39.7229 123.748 39.5759 132.601 40.6969 141.218C43.0049 158.473 50.5479 174.563 61.2889 187.027C72.0009 199.558 85.9009 208.381 100.081 213.3C107.203 215.74 114.405 217.327 121.467 218.031C128.528 218.767 135.43 218.603 141.978 217.861C155.1 216.379 166.749 212.276 176.154 207.109C185.603 201.958 192.837 195.788 198.06 190.12C203.316 184.448 206.611 179.297 208.704 175.74C209.758 173.929 210.456 172.61 210.964 171.61C211.46 170.626 211.717 170.118 211.717 170.118L211.701 170.149Z" fill="black"/>
</svg>
