<svg width="313" height="313" viewBox="0 0 313 313" fill="none" xmlns="http://www.w3.org/2000/svg">
<path d="M234.133 234.236C277.162 191.208 277.162 121.445 234.133 78.4167C191.105 35.3884 121.342 35.3884 78.314 78.4167C35.2857 121.445 35.2857 191.208 78.314 234.236C121.342 277.264 191.105 277.264 234.133 234.236Z" fill="white"/>
<path d="M125.217 72.246C252.255 30.534 306.716 209.185 181.291 247.125C67.8231 281.445 14.1651 103.246 125.217 72.246Z" fill="#FFE700"/>
<path d="M135.598 123.067C133.596 118.261 129.884 114.315 124.666 113.075C118.529 111.616 113.059 115.679 111.224 121.415C109.579 126.559 113.373 131.344 118.162 132.68C121.172 133.519 124.267 132.913 126.813 131.357C126.914 131.369 127.004 131.384 127.11 131.396C127.603 131.449 129.268 131.591 128.114 131.218C131.045 132.166 133.17 130.47 133.934 128.221C135.42 126.975 136.362 124.903 135.598 123.067Z" fill="#BB651F"/>
<path d="M204.427 126.54C202.181 122.207 198.965 117.012 193.565 116.676C192.367 116.601 191.079 117.024 190.044 117.591C188.91 118.213 188.224 119.081 187.485 120.099C186.447 121.529 186.166 123.345 185.97 125.043C185.621 128.071 186.911 131.926 189.777 133.378C192.103 134.556 194.549 134.388 196.816 133.148C196.885 133.11 196.949 133.064 197.018 133.024C198.589 134.219 200.916 134.387 202.633 133.382C205.071 131.952 205.682 128.959 204.427 126.54Z" fill="#BB651F"/>
<path d="M238.46 183.203C229.436 200.861 214.076 216.185 196.764 225.726C179.509 235.234 159.314 237.779 140.026 234.49C122.215 231.451 105.806 223.457 93.5531 210.072C81.4201 196.816 74.7021 179.344 69.5991 162.398C67.7451 156.24 58.0921 158.865 59.9561 165.056C65.5131 183.509 72.9841 201.517 85.6881 216.249C98.8721 231.538 117.761 240.497 137.367 244.132C158.989 248.14 181.031 245.042 200.594 235.007C219.848 225.13 237.257 207.501 247.095 188.249C250.023 182.522 241.396 177.459 238.46 183.203Z" fill="#FFB01F"/>
<path d="M203.968 70.082C174.159 56.473 138.767 52.432 110.255 71.415C104.916 74.97 109.917 83.635 115.302 80.05C140.717 63.129 172.26 66.545 198.922 78.717C204.742 81.374 209.828 72.757 203.968 70.082Z" fill="white"/>
<path fill-rule="evenodd" clip-rule="evenodd" d="M108.464 197.203C107.014 195.176 108.4 193.475 109.364 191.914C110.914 189.402 112.788 187.094 114.423 184.631C117.178 180.481 120.843 177.145 124.514 173.92C126.921 171.803 129.989 170.313 132.961 168.988C145.144 163.558 157.921 161.943 171.107 163.713C173.57 164.043 176.009 164.797 178.37 165.611C185.335 168.015 191.916 170.994 196.833 176.898C199.976 180.671 203.575 184.003 205.691 188.617C206.623 190.65 207.021 192.359 205.987 194.734C204.054 192.029 202.365 189.379 200.392 186.962C196.387 182.056 192.494 176.888 186.995 173.618C183.597 171.598 179.576 170.602 175.8 169.247C171.096 167.559 166.238 168.099 161.364 168.167C154.691 168.261 148.382 169.94 142.089 171.749C136.829 173.259 131.8 175.567 127.437 178.819C123.897 181.458 120.195 184.055 117.591 187.844C116.315 189.701 114.548 191.229 112.952 192.856C111.52 194.316 110.016 195.705 108.464 197.203Z" fill="black"/>
<path fill-rule="evenodd" clip-rule="evenodd" d="M110.355 124.947C110.03 119.808 112.761 115.704 117.85 114.256C120.861 113.4 124.064 113.197 127.195 112.818C127.749 112.75 128.417 113.188 128.958 113.515C131.106 114.814 133.229 116.154 135.353 117.492C137.198 118.655 137.936 120.693 138.091 122.529C138.749 130.355 133.963 137.59 126.052 138.557C124.865 138.702 123.663 138.751 122.467 138.809C118.823 138.985 115.851 137.575 113.716 134.682C111.764 132.037 110.011 129.237 110.351 125.694C110.381 125.375 110.355 125.048 110.355 124.947ZM115.642 124.301C115.642 125.733 115.561 126.614 115.659 127.474C115.886 129.473 116.853 131.048 118.859 131.586C120.633 132.061 122.522 132.648 124.295 132.484C130.99 131.863 134.883 128.131 134.076 121.331C133.822 119.191 132.331 117.31 130.506 117.16C127.178 116.887 123.824 115.876 120.36 117.959C117.477 119.693 114.601 120.728 115.642 124.301Z" fill="black"/>
<path fill-rule="evenodd" clip-rule="evenodd" d="M192.839 138.629C189.818 138.416 187.538 136.672 185.445 134.752C182.479 132.031 181.078 128.453 181.037 124.502C181.021 122.973 180.284 121.546 181.119 119.79C182.997 115.842 186.686 114.79 190.135 113.23C192.646 114.14 195.588 113.866 197.686 115.902C199.726 117.882 202.02 119.693 203.663 121.969C206.667 126.132 206.526 131.43 202.503 135.49C199.661 138.359 196.163 137.925 192.839 138.629ZM195.638 132.677C196.913 132.273 198.332 132.008 199.573 131.385C201.22 130.56 202.416 129.017 202.234 127.208C202.045 125.329 201.428 123.525 200.289 121.765C198.868 119.565 196.686 118.676 194.761 117.451C191.976 115.679 187.093 118.015 186.456 121.312C186.115 123.077 186.337 124.977 186.477 126.803C186.662 129.229 187.994 130.893 190.35 131.552C192.022 132.019 193.751 132.284 195.638 132.677Z" fill="black"/>
<path d="M197.881 67.996C197.881 67.996 198.393 68.244 199.386 68.723C200.361 69.195 201.951 69.998 203.847 71.059C207.676 73.208 213.18 76.652 219.382 82.047C225.529 87.462 232.402 94.869 238.273 104.719C244.146 114.524 249.043 126.743 251.193 140.729C252.232 147.714 252.575 155.116 252.006 162.725C251.449 170.328 250.01 178.157 247.423 185.858C246.136 189.713 244.619 193.528 242.794 197.299L242.137 198.657L241.405 200.077C240.922 201.038 240.404 201.932 239.901 202.864C238.856 204.694 237.769 206.516 236.578 208.284C231.876 215.393 226.102 222.018 219.389 227.77C212.684 233.528 205.059 238.426 196.798 242.174C188.542 245.938 179.645 248.504 170.506 249.817C152.252 252.53 132.817 249.735 116.021 241.387C107.703 237.25 99.79 232.184 92.834 226.053C85.86 219.955 79.761 212.916 74.923 205.174C65.122 189.733 60.767 171.489 61.714 154.089C62.172 145.379 63.905 136.905 66.442 128.912C67.715 124.914 69.194 121.032 70.822 117.273L71.125 116.568L71.45 115.848L72.074 114.486C72.504 113.574 72.975 112.618 73.433 111.706C74.371 109.894 75.328 108.104 76.367 106.376C84.602 92.492 95.751 81.401 107.671 73.745C110.642 71.811 113.664 70.089 116.689 68.542C119.731 67.028 122.78 65.701 125.807 64.551C131.866 62.266 137.826 60.617 143.536 59.681C154.977 57.726 165.201 58.568 173.303 60.02C181.436 61.544 187.554 63.733 191.653 65.314C193.704 66.112 195.25 66.789 196.283 67.261C197.315 67.736 197.848 67.982 197.848 67.982L197.881 67.996ZM195.599 72.807C195.599 72.807 195.094 72.586 194.115 72.157C193.135 71.73 191.67 71.12 189.73 70.406C187.791 69.69 185.354 68.931 182.455 68.189C179.551 67.471 176.163 66.851 172.35 66.41C164.725 65.532 155.35 65.649 144.892 67.518C139.671 68.473 134.156 69.818 128.555 71.897C125.753 72.928 122.928 74.121 120.104 75.488C117.266 76.827 114.421 78.33 111.613 80.034C106.004 83.449 100.469 87.557 95.302 92.444C90.127 97.318 85.349 102.996 81.249 109.382C80.211 110.97 79.248 112.622 78.299 114.296C77.836 115.139 77.394 115.951 76.94 116.827L76.265 118.165L75.63 119.468C73.924 123.012 72.365 126.679 70.982 130.455C68.226 138.01 66.254 146.045 65.409 154.366C64.567 162.677 64.968 171.302 66.963 179.705C68.966 188.1 72.526 196.238 77.454 203.531C82.38 210.83 88.568 217.312 95.534 222.81C102.521 228.29 110.183 232.931 118.303 236.613C126.328 240.353 134.857 242.935 143.549 244.263C152.244 245.577 161.098 245.568 169.694 244.296C186.905 241.683 202.86 233.856 215.131 222.896C227.472 211.964 236.047 197.912 240.715 183.646C243.029 176.482 244.488 169.253 245.068 162.181C245.678 155.108 245.392 148.209 244.535 141.676C242.822 128.582 238.513 117.008 233.181 107.695C227.863 98.339 221.566 91.215 215.807 86.093C210.043 80.938 204.834 77.735 201.242 75.705C199.412 74.683 198.08 74.009 197.072 73.518C196.079 73.039 195.566 72.792 195.566 72.792L195.599 72.807Z" fill="black"/>
</svg>
