<svg width="251" height="251" viewBox="0 0 251 251" fill="none" xmlns="http://www.w3.org/2000/svg">
<path d="M234.475 141.356C243.341 81.1563 201.726 25.167 141.525 16.3009C81.3246 7.43474 25.3349 49.0492 16.4689 109.249C7.60287 169.45 49.2179 225.439 109.419 234.305C169.619 243.171 225.609 201.557 234.475 141.356Z" fill="white"/>
<path d="M92.442 37.09C216.923 -5.99998 270.316 183.982 146 216.338C35.4631 245.107 -4.99996 89 92.442 37.09Z" fill="#FFE700"/>
<path d="M86.0081 149.426L176 144V156L89.9201 160.34L86.0081 149.426Z" fill="white"/>
<path d="M89.026 162.164C123.064 162.799 141.962 155.488 176 156C162.848 215.444 114 210 89.026 162.164Z" fill="#DF2E27"/>
<path d="M115.8 196.292V188.149L126.999 175.993L138.829 178.666L150 173.81L157.333 176L161.857 190.5L144.25 198.25L133.918 199.496L115.8 196.292Z" fill="#D05395"/>
<path d="M201.25 76.2501C187.24 76.3691 173.395 78.8151 159.406 79.3171C156.148 79.4331 152.96 79.5911 149.861 79.9401C149.446 79.3341 148.914 78.8071 148.273 78.4321C147.022 77.6991 145.801 77.7001 144.421 77.9281C142.314 78.2771 140.425 78.7571 138.477 79.6821C137.446 80.1711 136.751 81.0701 136.373 82.1041C135.947 82.5961 135.621 83.1951 135.433 83.9001C134.028 84.6151 132.654 85.4381 131.319 86.4071C124.965 85.4841 118.88 87.5831 112.5 87.7501C112.332 87.7541 112.171 87.7691 112.012 87.7871C111.736 87.3631 111.395 87.0021 111.008 86.7051C111.47 83.9331 109.885 80.7541 106.25 80.7501C96.048 80.7381 85.857 80.6131 75.686 81.5451C65.188 82.5061 54.62 81.9201 44.171 83.4291C38.206 84.2891 40.221 92.8131 45.692 93.1231C45.222 94.0321 45.002 95.1131 45.179 96.3291C46.217 103.496 48.241 111.096 52.856 116.847C57.15 122.199 63.94 125.637 70.351 127.843C76.785 130.056 85.018 130.389 91.349 127.646C94.046 126.477 96.422 124.904 98.699 123.107C99.915 123.186 101.186 122.739 102.286 121.536C107.597 115.727 110.419 108.98 111.748 101.71C112.064 101.441 112.355 101.132 112.618 100.792C113.008 100.326 113.433 99.8971 113.891 99.4991C114.257 99.2541 114.63 99.0221 115.024 98.8181C115.707 98.4651 116.236 97.9361 116.638 97.3231C118.998 96.9491 121.398 96.4341 123.771 96.1601C124.321 96.5971 125.029 96.9211 125.921 97.0721C130.378 97.8271 133.187 100.09 135.443 102.954C135.571 103.83 135.729 104.705 135.929 105.58C136.416 107.706 137.841 108.805 139.458 109.089C139.72 109.521 139.988 109.951 140.258 110.381C140.317 110.512 140.373 110.644 140.433 110.774C140.739 111.45 141.125 111.974 141.563 112.375C142.341 113.498 143.182 114.587 144.135 115.602C150.441 122.316 160.745 124.439 169.573 124.2C179.071 123.943 187.967 120.248 193.66 112.508C198.893 105.393 199.036 95.4501 201.821 87.3311C201.959 86.9311 202.043 86.5471 202.085 86.1781C207.678 85.3001 207.408 76.1981 201.25 76.2501ZM97.164 106.966C96.993 107.198 96.829 107.444 96.683 107.727C95.665 109.697 94.978 111.802 93.972 113.773C92.868 115.936 89.708 117.346 87.68 118.415C83.786 120.466 76.923 119.906 73.024 118.183C68.642 116.247 64.211 114.496 60.871 110.952C56.813 106.645 55.634 99.2761 54.822 93.6721C54.752 93.1871 54.626 92.7601 54.462 92.3781C61.527 92.0281 68.646 92.2931 75.687 91.5461C83.736 90.6921 91.854 90.6851 99.952 90.7251C99.812 91.3701 99.791 92.0731 99.929 92.8311C100.792 97.5581 98.869 102.437 97.164 106.966ZM186.208 105.515C182.448 112.967 173.313 114.473 165.772 114.175C162.055 114.029 158.324 113.013 155.025 111.318C152.057 109.793 150.3 107.561 148.729 104.969C146.643 100.246 145.082 95.4941 146.635 90.4241C152.195 89.2491 158.19 89.4351 163.97 89.1111C173.194 88.5941 182.35 87.3361 191.554 86.6721C189.75 92.9311 189.145 99.6941 186.208 105.515Z" fill="#924432"/>
<path d="M55.9831 92.3131L101 89.7501C101 89.7501 106.286 119.137 80.0181 119.693C53.7501 120.25 55.9831 92.3131 55.9831 92.3131Z" fill="#3FCDFF"/>
<path d="M145.75 87.5001H190.75C190.75 87.5001 191.454 114.027 172.75 116C140.46 119.405 145.75 87.5001 145.75 87.5001Z" fill="#3FCDFF"/>
<path d="M167.341 198.507C127.075 212.127 72.265 204.637 53.654 161.472C51.107 155.565 42.4941 160.663 45.0191 166.519C65.3261 213.618 125.859 223.08 169.999 208.15C176.073 206.095 173.467 196.435 167.341 198.507Z" fill="#FFB01F"/>
<path d="M202.205 63.1291C176.368 39.7411 137.578 18.7241 102.008 30.5091C95.917 32.5271 98.527 42.1861 104.666 40.1521C136.736 29.5271 171.889 49.1591 195.135 70.2001C199.902 74.5151 206.996 67.4651 202.205 63.1291Z" fill="white"/>
<path fill-rule="evenodd" clip-rule="evenodd" d="M208.716 83.4491C208.418 81.0811 208.077 78.6881 207.416 76.4041C206.811 74.3091 205.477 72.7941 202.938 72.7651C200.76 72.7431 198.576 72.2311 196.413 72.3391C188.131 72.7571 179.857 73.3611 171.579 73.8481C166.806 74.1281 162.026 74.2951 157.251 74.5551C151.478 74.8701 145.683 74.9221 140.007 76.3221C137.696 76.8921 136.158 78.1731 134.969 80.1681C134.164 81.5181 133.069 82.6971 132.046 84.0291C132.041 84.0231 132.037 84.0181 132.032 84.0121C131.227 84.9991 129.996 85.6661 128.334 85.6661C127.655 85.6661 127.051 85.5491 126.515 85.3501C124.917 85.6521 123.297 85.9481 121.694 85.9121C119.551 85.8641 117.41 85.4391 115.282 85.0911C113.712 84.8321 113.997 83.2521 113.427 82.2741C113.169 81.8331 112.734 81.4421 112.293 81.1671C109.309 79.2961 106.289 77.5881 102.535 77.9031C100.92 78.0381 99.276 77.7911 97.645 77.7531C92.53 77.6371 87.394 77.1901 82.305 77.5071C72.377 78.1261 62.476 79.1791 52.562 80.0281C51.996 80.0761 51.411 79.8971 50.417 79.7731C51.652 77.8621 52.345 75.9351 53.708 74.8561C56.651 72.5271 58.33 69.4081 60.136 66.3051C62.689 61.9191 65.785 57.9161 69.851 54.8841C73.242 52.3561 76.995 50.3151 80.58 48.0421C86.365 44.3741 92.413 41.1871 98.785 38.6891C103.242 36.9401 107.727 35.1981 112.583 34.7311C116.701 34.3351 120.792 33.5841 124.916 33.3241C130.679 32.9581 136.459 33.0241 142.186 33.9881C145.624 34.5661 149.173 34.7981 152.469 35.8331C157.544 37.4281 162.537 39.3731 167.392 41.5521C171.922 43.5871 176.745 45.2711 180.147 49.2411C180.341 49.4681 180.722 49.5241 180.994 49.6951C182.725 50.7951 184.589 51.7401 186.149 53.0461C188.899 55.3451 191.469 57.8581 194.102 60.2961C195.607 61.6901 197.215 63.0031 198.537 64.5551C199.874 66.1251 201.202 67.5681 203.464 68.3751C203.382 65.7941 202.209 63.9081 200.916 62.2371C198.608 59.2561 196.082 56.4381 193.57 53.6221C191.83 51.6721 190.15 49.5981 188.116 47.9951C181.844 43.0501 175.29 38.4711 167.864 35.3921C163.14 33.4331 158.399 31.2411 153.445 30.1741C146.865 28.7541 140.091 28.0721 133.362 27.5481C126.298 26.9981 119.268 28.0331 112.272 29.0531C106.648 29.8721 101.129 31.1131 95.879 33.3161C87.478 36.8401 79.679 41.5281 72.278 46.7441C66.189 51.0351 60.783 56.2301 57.534 63.2231C56.891 64.6051 56.197 66.0341 55.217 67.1751C52.408 70.4461 50.091 74.0051 48.585 78.0311C47.882 79.9081 46.643 80.8851 44.803 81.2211C40.088 82.0791 38.935 85.9971 37.536 89.6741C37.377 90.0921 37.552 90.8161 37.839 91.1931C39.154 92.9211 40.289 94.9871 42.015 96.1451C43.918 97.4231 44.398 99.0151 44.797 100.957C45.589 104.788 46.172 108.706 47.412 112.395C49.236 117.833 52.605 122.364 56.765 126.347C58.811 128.306 61.457 129.076 63.705 130.517C67.762 133.115 72.171 132.672 76.496 132.939C78.852 133.085 81.248 132.379 83.635 132.236C89.582 131.882 95.318 130.8 100.643 127.965C102.915 126.755 104.856 125.301 106.055 122.921C106.636 121.768 107.566 120.792 108.308 119.713C108.856 118.917 109.446 118.128 109.857 117.259C111.673 113.409 113.35 109.493 115.251 105.687C116.016 104.158 116.963 102.553 118.831 102.046C122.901 100.939 126.646 98.5081 131.429 99.1721C132.92 105.266 135.584 110.713 139.367 115.761C140.919 117.834 143.097 119.126 144.527 121.126C146.902 124.449 150.295 126.056 153.948 127.209C158.291 128.582 162.642 129.762 167.267 130.236C172.924 130.817 178.081 129.504 183.292 127.882C183.789 127.729 184.236 127.333 184.643 126.976C187.516 124.453 190.436 121.979 193.217 119.358C198.223 114.64 201.167 109.011 200.591 101.895C200.506 100.841 200.646 99.7411 200.861 98.6991C201.304 96.5631 201.993 94.4731 202.354 92.3271C202.771 89.8491 203.811 87.9701 206.326 87.2211C208.257 86.6461 208.942 85.2501 208.716 83.4491ZM204.561 82.4401C200.401 84.4631 199.552 88.5221 198.269 92.3171C196.897 96.3741 196.353 100.562 196.09 104.836C195.991 106.466 195.172 108.199 194.256 109.608C191.263 114.205 186.818 117.263 182.315 120.188C181.449 120.751 180.28 120.917 179.223 121.111C169.777 122.84 160.716 121.178 151.972 117.639C150.06 116.867 148.427 115.216 146.9 113.731C144.79 111.676 142.679 109.551 140.974 107.169C138.888 104.251 137.12 101.086 135.412 97.9221C135.028 97.2101 134.601 96.6611 134.102 96.2271C133.758 96.2961 133.391 96.3351 132.999 96.3351C131.311 96.3351 130.069 95.6451 129.265 94.6341C125.364 94.3301 121.736 95.5791 117.978 96.3881C114.187 97.2031 112.655 99.7961 111.001 102.925C108.363 107.922 106.391 113.319 102.476 117.637C100.653 119.649 98.747 121.344 96.207 122.206C90.899 124.011 85.521 125.37 79.814 124.586C77.77 124.304 75.691 124.265 73.626 124.174C63.801 123.743 57.413 118.04 52.34 110.319C49.749 106.376 49.185 101.748 48.184 97.3061C47.513 94.3331 46.666 91.6971 43.971 89.9141C43.274 89.4531 42.946 88.4351 42.118 87.1661C45.446 86.4941 48.165 85.7691 50.933 85.4271C55.816 84.8231 60.725 84.4041 65.63 83.9971C71.6 83.5031 77.571 82.9211 83.553 82.7101C90.409 82.4681 97.278 82.5861 104.142 82.5621C106.796 82.5541 108.8 83.3671 110.299 85.9211C112.044 88.8961 115.401 89.4611 118.547 89.4381C120.555 89.4231 122.549 88.5171 124.559 88.0561C126.417 87.6281 128.289 87.2621 130.398 86.8181C130.43 86.8651 130.466 86.9191 130.498 86.9651C131.16 86.5831 131.962 86.3551 132.904 86.3401C134.889 84.8611 136.729 83.4221 138.668 82.1481C141.311 80.4131 144.4 80.3731 147.414 80.3331C150.894 80.2871 154.379 80.5031 157.859 80.4631C161.002 80.4261 164.141 80.1681 167.285 80.0661C170.343 79.9641 173.412 80.0561 176.461 79.8401C180.375 79.5651 184.267 78.9521 188.182 78.6941C192.973 78.3801 197.778 78.2051 202.578 78.1611C203.479 78.1531 204.686 78.8291 205.219 79.5711C205.852 80.4561 205.713 81.8801 204.561 82.4401Z" fill="black"/>
<path fill-rule="evenodd" clip-rule="evenodd" d="M210.27 96.4171C210.882 97.7611 211.503 99.0981 212.106 100.445C213.173 102.832 213.949 105.405 215.351 107.575C217.893 111.506 218.441 115.9 219.054 120.324C219.292 122.052 219.431 123.792 219.644 125.523C220.459 132.162 219.209 138.631 217.871 145.062C217.476 146.948 216.296 148.657 215.652 150.508C213.784 155.873 212.045 161.283 210.179 166.651C207.703 173.776 205.622 181.079 200.68 187.08C199.162 188.923 198.255 191.342 196.547 192.937C193.29 195.98 189.815 198.852 186.146 201.376C179.94 205.646 173.612 209.735 166.415 212.301C161.391 214.093 156.56 216.429 151.537 218.229C149.031 219.126 146.217 219.145 143.678 219.974C141.717 220.615 139.784 221.147 137.749 221.17C133.381 221.224 129.012 221.245 124.646 221.149C121.493 221.079 118.272 221.147 115.208 220.525C110.622 219.597 106.061 218.363 101.647 216.808C96.111 214.859 90.563 212.794 85.341 210.147C80.793 207.843 76.368 205.045 72.469 201.775C67.055 197.233 61.871 192.324 57.16 187.059C51.406 180.629 46.126 173.712 42.663 165.709C40.679 161.124 39.13 156.336 37.617 151.566C35.74 145.651 34.701 139.532 33.756 133.406C33.258 130.177 32.35 126.923 32.464 123.711C32.692 117.285 33.322 110.841 35.916 104.818C36.816 102.727 37.83 100.681 38.904 98.6751C39.086 98.3361 39.84 98.3051 40.731 97.9891C39.689 103.365 38.38 108.221 37.894 113.159C37.403 118.139 37.306 123.242 37.818 128.211C38.32 133.078 39.431 137.967 40.947 142.626C43.504 150.485 45.728 158.498 49.545 165.894C51.646 169.966 53.7701 174.009 56.9591 177.421C59.1171 179.731 61.107 182.238 62.893 184.848C66.568 190.221 71.858 193.763 76.887 197.606C81.961 201.484 87.676 204.157 93.589 206.507C102.058 209.876 110.751 212.161 119.848 213.004C127.628 213.723 135.422 213.914 143.017 212.093C148.396 210.805 153.637 208.789 158.776 206.692C164.932 204.182 171.016 201.442 176.926 198.404C180.008 196.82 182.588 194.29 185.506 192.356C190.087 189.321 193.427 185.111 196.347 180.632C198.356 177.551 199.909 174.099 201.202 170.639C203.65 164.089 205.406 157.259 208.134 150.836C210.378 145.552 211.985 140.189 212.969 134.586C213.099 133.847 213.199 133.085 213.175 132.338C212.989 126.543 212.969 120.733 212.475 114.965C212.237 112.197 211.28 109.431 210.291 106.8C209.065 103.534 208.649 99.8661 210.27 96.4171Z" fill="black"/>
<path fill-rule="evenodd" clip-rule="evenodd" d="M181.673 139.556C181.117 142.908 177.895 142.262 176.349 143.997C176.386 144.336 176.337 144.797 176.49 145.176C179.958 153.788 178.699 162.333 176.014 170.804C175.031 173.909 174.023 177.119 172.352 179.872C169.705 184.229 166.993 188.576 163.056 192.053C154.834 199.317 145.266 202.827 134.443 201.838C127.234 201.179 119.932 200.156 113.344 196.628C110.959 195.351 108.506 194.195 106.175 192.828C101.337 189.993 97.91 185.79 95.089 181.034C88.957 170.692 85.4501 159.655 86.1571 147.49C86.2181 146.426 86.1651 145.353 86.1651 144.101C86.9211 143.959 87.6411 143.74 88.3721 143.697C95.7931 143.267 103.214 142.841 110.638 142.465C114.66 142.26 118.698 142.272 122.712 141.973C129.658 141.456 136.582 140.605 143.533 140.204C152.567 139.683 161.618 139.42 170.664 139.138C173.718 139.043 176.781 139.215 179.84 139.289C180.366 139.302 180.889 139.438 181.673 139.556ZM161.503 183.898C166.873 181.37 172.625 168.295 172.393 159.346C171.145 158.194 169.702 158.312 168.122 158.565C164.311 159.171 160.482 159.657 156.653 160.134C154.483 160.404 152.3 160.567 150.122 160.769C143.811 161.356 137.505 162.012 131.187 162.505C123.361 163.116 115.52 163.551 107.692 164.144C104.34 164.399 101.011 164.956 97.658 165.2C94.535 165.426 93.902 166.561 95.443 169.397C96.481 171.306 97.367 173.301 98.344 175.247C99.032 176.613 99.5691 178.11 100.502 179.288C104.105 183.834 109.087 186.457 114.018 188.882C114.667 186.545 115.014 184.275 115.922 182.255C117.437 178.891 119.974 176.336 123.186 174.442C125.929 172.826 128.647 172.476 131.505 174.088C132.264 174.515 133.169 174.714 133.866 175.215C136.58 177.167 139.181 176.612 141.775 175.015C144.21 173.516 146.692 172.172 149.602 171.797C152.26 171.452 154.479 171.957 156.413 174.052C159.034 176.889 161.074 179.941 161.503 183.898ZM172.645 144.065C144.693 146.385 117.283 150.114 89.5021 148.695C90.4771 152.364 91.3571 155.671 92.2681 159.1C97.5091 158.787 102.41 158.491 107.312 158.207C113.825 157.828 120.343 157.521 126.851 157.069C134.232 156.554 141.603 155.912 148.98 155.332C156.972 154.705 164.904 152.68 173.283 154.425C173.741 150.869 173.875 147.512 172.645 144.065ZM159.827 186.108C158.442 183.335 157.346 180.849 155.996 178.508C154.171 175.342 151.718 174.687 148.52 176.389C147.271 177.053 146.102 177.888 144.966 178.738C140.21 182.3 136.661 182.228 132.965 178.657C131.553 177.293 129.951 177.163 128.452 177.838C123.993 179.839 120.735 183.177 118.864 187.699C117.726 190.448 118.319 191.505 121.155 192.269C123.369 192.866 125.629 193.29 127.872 193.778C137.251 195.824 146.141 194.28 154.565 189.913C156.457 188.933 158.063 187.405 159.827 186.108Z" fill="black"/>
<path fill-rule="evenodd" clip-rule="evenodd" d="M56.261 93.7731C58.103 101.514 59.695 108.763 66.021 113.401C72.066 117.835 78.997 119.586 86.508 118.151C89.935 117.496 92.604 115.345 95.286 113.302C96.286 112.54 97.135 111.578 98.301 110.936C97.582 113.534 95.741 115.283 93.975 117.084C91.653 119.451 88.457 120.122 85.57 121.38C84.482 121.853 83.296 122.136 82.129 122.388C75.555 123.81 69.58 122.406 64.31 118.292C59.964 114.899 56.452 110.692 54.204 105.681C52.981 102.954 52.494 99.8561 51.964 96.8751C51.61 94.8831 51.763 92.8011 51.681 90.5441C55.334 89.0211 59.476 89.1061 63.569 88.8171C68.11 88.4961 72.643 88.0601 77.181 87.6891C79.969 87.4621 82.756 87.1621 85.549 87.0801C89.457 86.9641 93.372 86.9881 97.283 87.0181C98.876 87.0321 100.468 87.2201 102.113 87.3351C102.234 89.7531 101.018 90.7961 99.291 91.0641C95.204 91.6971 91.091 92.1691 86.981 92.6411C83.186 93.0781 79.384 93.6841 75.578 93.7491C70.946 93.8241 66.307 93.3511 61.668 93.2411C60.066 93.2051 58.456 93.5451 56.261 93.7731Z" fill="black"/>
<path fill-rule="evenodd" clip-rule="evenodd" d="M146.102 86.1691C149.839 85.7011 153.603 84.8641 157.373 84.8311C167.273 84.7431 177.156 84.422 187.036 83.834C190.764 83.611 192.983 84.984 193.611 88.652C194.213 92.166 194.517 95.86 194.106 99.376C193.802 101.984 192.418 104.6 191.035 106.926C186.683 114.244 180.078 117.537 171.587 118.068C167.625 118.315 164.302 116.667 160.566 116.649C160.574 116.348 160.581 116.047 160.59 115.746C162.415 115.54 164.267 115.027 166.064 115.177C177.693 116.143 186.06 106.695 188.206 98.3331C188.938 95.4771 189.757 92.6131 188.605 89.6271C186.845 88.6521 185.206 89.748 183.52 89.842C177.778 90.163 172.031 90.5081 166.283 90.5861C160.868 90.6591 155.45 90.3781 150.033 90.3061C147.441 90.2711 146.201 89.1171 146.102 86.1691Z" fill="black"/>
</svg>
