<svg width="313" height="312" viewBox="0 0 313 312" fill="none" xmlns="http://www.w3.org/2000/svg">
<path d="M234.593 233.911C277.622 190.883 277.622 121.12 234.593 78.0916C191.565 35.0633 121.802 35.0633 78.7741 78.0916C35.7457 121.12 35.7457 190.883 78.7741 233.911C121.802 276.939 191.565 276.939 234.593 233.911Z" fill="white"/>
<path d="M124.391 70.838C251.429 29.126 305.891 207.778 180.465 245.717C66.998 280.038 13.34 101.838 124.391 70.838Z" fill="#FFE700"/>
<path d="M137.577 128.082C135.864 126.149 133.61 126.022 131.28 125.5C129.728 125.153 128.398 125.481 127.369 126.191C125.162 123.296 119.661 123.089 118.463 127.659C117.802 130.181 118.18 132.457 118.284 134.988C118.351 136.633 119.159 138.567 120.761 139.305C126.477 141.941 132.341 141.592 137.247 137.487C140.303 134.933 140.086 130.914 137.577 128.082Z" fill="#BB651F"/>
<path d="M192.819 122.786C191.078 121.299 188.713 120.891 186.79 122.005C186.512 122.035 186.232 122.084 185.955 122.168C183.118 123.021 180.274 124.333 178.288 126.603C175.81 129.435 175.298 132.696 175.796 136.318C176.029 138.014 177.78 139.346 179.288 139.81C184.127 141.3 189.681 140.218 193.621 137.092C198.581 133.157 197.176 126.506 192.819 122.786Z" fill="#BB651F"/>
<path d="M239.798 182.323C233.266 202.932 215.234 217.26 196.118 225.928C175.703 235.187 150.972 236.451 129.388 231.116C109.456 226.188 94.219 214.291 84.476 196.322C75.354 179.496 71.328 158.561 74.774 139.648C75.922 133.345 66.286 130.652 65.132 136.99C61.219 158.463 65.442 180.801 75.217 200.173C85.82 221.186 104.158 234.794 126.731 240.759C150.431 247.023 177.38 244.89 199.84 235.14C221.95 225.542 241.997 208.466 249.442 184.982C251.394 178.816 241.739 176.199 239.798 182.323Z" fill="#FFB01F"/>
<path d="M211.948 80.1701C174.893 65.0001 124.295 51.8221 91.0839 82.1221C86.3099 86.4771 93.4019 93.529 98.1539 89.193C128.291 61.698 176.166 76.2521 209.29 89.8121C215.26 92.2571 217.832 82.5791 211.948 80.1701Z" fill="white"/>
<path fill-rule="evenodd" clip-rule="evenodd" d="M210.95 182.438C209.731 182.721 208.707 183.013 207.662 183.183C207.021 183.287 206.349 183.227 205.693 183.204C197.25 182.906 188.867 183.692 180.493 184.613C172.89 185.449 165.307 186.549 157.685 187.089C147.107 187.84 136.503 188.285 125.903 188.612C123.461 188.686 120.967 187.827 118.538 187.226C117.846 187.055 117.305 186.28 116.043 185.249C117.894 184.857 118.904 184.506 119.932 184.45C125.24 184.164 130.569 184.142 135.859 183.674C145.963 182.777 156.124 182.548 166.166 180.846C170.353 180.136 174.663 180.168 178.913 179.811C183.252 179.449 187.58 178.926 191.923 178.653C197.046 178.331 202.18 178.186 207.311 177.995C209.358 177.917 209.957 178.618 210.95 182.438Z" fill="black"/>
<path fill-rule="evenodd" clip-rule="evenodd" d="M116.348 121.556C118.113 120.805 120.034 121.291 121.938 121.744C127.232 123.002 132.484 124.477 137.825 125.482C140.156 125.921 141.14 127.408 142.632 129.074C140.203 130.315 140.032 132.204 140.029 134.538C140.025 137.87 138.68 141.232 136.397 143.46C133.743 146.05 130.134 147.032 126.119 146.26C116.902 144.486 113.11 134.922 115.26 126.418C115.649 124.866 115.962 123.295 116.348 121.556ZM118.911 125.264C118.911 127.404 119.095 129.142 118.875 130.827C118.33 135.008 122.521 140.068 125.907 140.603C131.805 141.535 135.118 139.768 136.972 134.121C137.431 132.723 137.61 131.235 137.94 129.673C131.56 128.195 125.56 126.804 118.911 125.264Z" fill="black"/>
<path fill-rule="evenodd" clip-rule="evenodd" d="M198.217 133.081C198.048 133.797 198.077 134.666 197.673 135.215C196.207 137.207 195.14 139.428 193.574 141.403C191.382 144.169 188.532 144.532 185.705 144.477C182.575 144.416 179.572 143.312 177.116 141.011C174.418 138.482 173.068 135.212 171.758 131.929C170.609 129.042 171.607 127.214 174.392 125.928C176.359 125.021 178.339 124.021 180.057 122.723C182.901 120.573 186.258 119.671 189.445 118.339C190.687 117.819 191.437 118.344 192.538 119.204C197.146 122.805 196.907 128.162 198.217 133.081ZM190.195 121.022C185.616 123.602 181.158 126.102 176.714 128.624C175.432 129.351 175.193 130.37 175.96 131.654C176.797 133.058 177.331 134.751 178.455 135.848C180.118 137.47 181.74 139.299 184.314 139.721C186.529 140.084 188.6 139.575 190.209 138.325C191.952 136.97 193.27 135.058 194.706 133.332C194.933 133.059 194.839 132.482 194.824 132.049C194.682 128.002 193.352 124.433 190.195 121.022Z" fill="black"/>
<path d="M196.053 69.587C196.053 69.587 196.56 69.831 197.545 70.303C198.508 70.769 200.075 71.551 201.955 72.587C205.754 74.675 211.226 77.99 217.51 83.122C223.752 88.267 230.834 95.266 237.195 104.653C243.538 114.004 249.147 125.787 251.974 139.549C253.361 146.42 253.997 153.762 253.674 161.337C253.352 168.905 252.074 176.724 249.571 184.393C248.322 188.232 246.839 192.024 245.028 195.772L244.377 197.115L243.66 198.515C243.181 199.465 242.674 200.362 242.173 201.28C241.149 203.097 240.072 204.9 238.9 206.655C234.271 213.71 228.571 220.28 221.962 226.017C215.36 231.755 207.847 236.658 199.7 240.438C191.557 244.23 182.778 246.869 173.742 248.253C155.704 251.131 136.442 248.671 119.666 240.69C111.365 236.696 103.458 231.825 96.456 225.884C89.443 219.975 83.242 213.151 78.282 205.592C68.202 190.552 63.364 172.64 63.796 155.402C63.962 146.771 65.455 138.337 67.748 130.358C68.907 126.369 70.27 122.488 71.796 118.73C72.168 117.786 72.567 116.858 72.968 115.933L73.266 115.239L73.444 114.837L73.602 114.503L74.23 113.169C74.651 112.281 75.071 111.396 75.488 110.513C75.966 109.615 76.44 108.721 76.914 107.829C80.692 100.751 85.283 94.441 90.335 88.821C91.563 87.384 92.925 86.095 94.217 84.759C95.544 83.46 96.915 82.226 98.273 81.003C101.056 78.636 103.886 76.415 106.823 74.471C118.474 66.488 131.064 62.213 142.382 60.429C148.062 59.546 153.463 59.369 158.41 59.65C163.355 59.945 167.869 60.525 171.865 61.4C173.878 61.761 175.737 62.305 177.5 62.735C179.255 63.198 180.865 63.756 182.382 64.191C183.885 64.682 185.257 65.182 186.523 65.616C187.785 66.059 188.894 66.558 189.913 66.934C191.954 67.687 193.443 68.438 194.475 68.878C195.498 69.336 196.028 69.573 196.028 69.573L196.053 69.587ZM193.773 74.399C193.773 74.399 193.269 74.185 192.293 73.77C191.309 73.375 189.888 72.686 187.948 72.014C186.982 71.668 185.917 71.244 184.709 70.884C183.499 70.531 182.188 70.118 180.759 69.721C179.313 69.387 177.768 68.992 176.1 68.672C174.424 68.391 172.663 68.004 170.77 67.806C167.007 67.26 162.8 67.016 158.249 67.065C153.698 67.129 148.787 67.451 143.614 68.304C138.444 69.141 132.992 70.425 127.466 72.458C121.957 74.517 116.336 77.186 110.849 80.631C105.372 84.087 100.002 88.275 95.086 93.303C90.161 98.297 85.607 104.105 81.832 110.559C74.27 123.593 68.548 139.024 67.366 155.563C67.219 157.628 67.159 159.706 67.161 161.795C67.201 163.882 67.29 165.979 67.482 168.075C67.686 170.17 67.931 172.272 68.311 174.36C68.703 176.445 69.151 178.529 69.716 180.589C71.975 188.831 75.762 196.757 80.819 203.85C85.902 210.928 92.151 217.21 99.152 222.518C106.166 227.808 113.815 232.308 121.887 235.84C125.879 237.639 130.002 239.132 134.201 240.331C138.399 241.532 142.671 242.452 146.984 243.04C155.61 244.216 164.372 244.095 172.868 242.739C189.871 239.944 205.589 232.083 217.673 221.159C223.732 215.707 228.923 209.518 233.105 202.903C234.158 201.254 235.138 199.572 236.086 197.885C236.544 197.034 237.021 196.184 237.435 195.345L238.078 194.078L238.722 192.731C240.353 189.312 241.719 185.769 242.846 182.238C245.068 175.151 246.368 167.991 246.726 161.004C247.105 154.016 246.551 147.222 245.376 140.824C243.043 127.994 238.072 116.819 232.279 107.907C226.485 98.958 219.953 92.173 214.069 87.277C208.192 82.339 202.979 79.238 199.392 77.252C197.57 76.251 196.239 75.585 195.239 75.101C194.255 74.627 193.747 74.383 193.747 74.383L193.773 74.399Z" fill="black"/>
</svg>
