<svg width="260" height="259" viewBox="0 0 260 259" fill="none" xmlns="http://www.w3.org/2000/svg">
<path d="M238.291 150.258C249.877 90.5206 210.842 32.7012 151.104 21.115C91.3653 9.52879 33.5455 48.5633 21.9594 108.301C10.3733 168.039 49.4084 225.858 109.147 237.444C168.885 249.031 226.705 209.996 238.291 150.258Z" fill="white"/>
<path d="M99.4419 44.089C226.48 2.37698 280.942 181.029 155.516 218.968C42.0479 253.289 -11.6101 75.089 99.4419 44.089Z" fill="#FFE700"/>
<path d="M74.9999 137L182.488 127.409L183 147L78.5029 151L74.9999 137Z" fill="white"/>
<path d="M78.5029 151C112.412 148.001 148.457 149.024 182.356 145.933C173.882 192.156 96.8489 205.786 81.0789 157.682L78.5029 151Z" fill="#DF2E27"/>
<path d="M112.467 183.12L113.999 175.999L121.666 162.999L138.066 167.34L149.389 161.087L156 166.872L163.666 179.667L154 183.333L142.551 187.811L132.027 186.26L112.467 183.12Z" fill="#D05395"/>
<path d="M104.054 89.812C104.042 89.429 103.979 89.045 103.824 88.664C102.161 84.566 99.3369 83.008 95.0029 82.993C94.3469 82.991 93.7619 83.097 93.2399 83.28C91.3309 81.95 88.4069 81.951 86.8009 83.79C83.1289 87.997 79.2049 94.822 82.8509 100.265C86.8559 106.245 96.2059 104.608 101.244 100.917C105.165 98.045 106.227 93.409 104.054 89.812Z" fill="#BB651F"/>
<path d="M180.25 93.454C179.876 91.866 178.935 90.407 177.843 89.149C178.126 87.922 177.977 86.589 177.321 85.47C175.919 83.076 172.868 82.361 170.48 83.676C166.199 86.034 161.145 89.432 160.877 94.822C160.671 98.949 164.444 102.018 168.174 102.732C171.694 103.406 175.75 103.073 178.431 100.419C180.295 98.572 180.838 95.954 180.25 93.454Z" fill="#BB651F"/>
<path d="M220.627 113.112C219.538 95.722 210.29 131.204 210.339 130.906C206.502 154.063 197.39 172.072 180.546 188.764C161.283 207.853 136.666 210.352 110.869 205.078C100.41 202.94 50.7919 167.832 50.7919 167.835C47.5909 181.323 101.041 212.98 107.315 214.306C136.743 220.525 165.919 217.22 187.482 195.503C213.779 169.018 222.879 149.056 220.627 113.112C221.211 122.423 220.245 107.007 220.627 113.112Z" fill="#FFB01F"/>
<path d="M188.996 57.174C171.881 52.31 154.898 46.943 137.167 44.829C119.073 42.671 101.31 46.004 85.1438 54.345C79.4118 57.303 84.4708 65.932 90.1908 62.98C104.998 55.34 120.7 53.099 137.168 54.83C153.915 56.589 170.22 62.237 186.339 66.818C192.554 68.583 195.188 58.934 188.996 57.174Z" fill="white"/>
<path fill-rule="evenodd" clip-rule="evenodd" d="M72.9349 133.594C75.5199 133.202 78.5199 132.712 81.5299 132.299C88.7879 131.303 96.0319 130.16 103.318 129.434C108.309 128.937 113.365 129.123 118.384 128.855C123.923 128.56 129.454 128.098 134.987 127.703C136.693 127.581 138.398 127.434 140.103 127.305C152.075 126.397 164.04 125.394 176.021 124.658C178.842 124.485 181.719 125.214 184.028 125.469C185 127.772 185.841 129.601 186.546 131.481C187.52 134.075 187.939 136.836 187.321 139.504C186.715 142.121 186.858 144.234 189.16 145.631C189.155 148.106 186.876 146.987 185.782 148.176C186.779 151.368 185.305 154.422 184.483 157.529C183.994 159.374 182.868 161.066 181.92 162.769C181.134 164.183 180.164 165.495 179.322 166.881C174.244 175.235 167.65 181.84 158.265 185.261C156.523 185.896 154.728 186.455 153.092 187.309C149.26 189.309 145.176 189.66 140.969 189.606C135.176 189.533 129.403 189.958 123.589 189.215C117.196 188.398 111.294 186.597 105.767 183.26C101.678 180.791 97.1069 179.053 93.2429 176.299C89.8279 173.864 86.9899 170.572 84.0819 167.485C79.7269 162.863 77.8069 156.824 75.0399 151.284C74.4089 150.022 73.7649 148.735 73.3789 147.387C72.1319 143.023 70.1359 138.69 72.9349 133.594ZM111.749 180.252C111.879 179.217 112.097 178.652 111.989 178.157C111.024 173.753 112.75 170.009 114.921 166.431C118.547 160.456 126.226 159.344 131.71 163.905C134.875 166.537 136.743 166.599 140.136 164.189C140.493 163.936 140.912 163.747 141.214 163.442C143.242 161.404 145.793 160.943 148.479 161.176C151.43 161.43 154.491 161.907 156.563 164.189C159.116 166.998 161.68 169.882 163.024 173.569C163.237 174.155 163.628 174.677 164.133 175.581C165.898 174.201 167.536 172.978 169.111 171.676C172.21 169.113 173.747 165.366 176.157 162.311C179.132 158.541 180.15 154.11 181.645 149.81C182.299 147.927 181.795 147.487 179.859 147.582C171.919 147.975 163.976 148.295 156.038 148.703C154.08 148.804 152.114 149.033 150.188 149.394C147.732 149.855 145.384 150.539 142.774 149.951C141.285 149.617 139.582 150.2 137.98 150.41C134.092 150.918 130.22 151.588 126.319 151.938C119.588 152.542 112.841 152.97 106.098 153.438C103.166 153.642 100.227 153.747 97.2929 153.927C92.3499 154.229 87.4099 154.557 82.3799 154.879C82.7179 158.784 85.1099 161.319 87.1889 163.917C93.5419 171.858 102.466 175.998 111.749 180.252ZM74.8739 138.339C75.7759 140.841 76.8699 143.635 77.7879 146.484C79.0499 150.406 79.8329 150.958 83.9469 150.62C87.8589 150.298 91.7829 150.1 95.6939 149.769C108.77 148.661 121.915 148.576 134.937 146.563C141.358 145.57 147.943 145.684 154.442 145.159C161.504 144.587 168.552 143.838 175.61 143.198C177.982 142.983 180.364 142.867 183.065 142.683C183.351 139.683 183.817 136.792 183.844 133.897C183.869 131.317 181.405 129.004 178.806 129.072C174.121 129.193 169.446 129.559 164.762 129.776C162.486 129.881 160.156 129.6 157.934 129.984C154.038 130.657 150.196 131.21 146.211 130.873C144.201 130.703 142.223 131.3 140.222 132.04C138.426 132.705 136.178 132.041 134.15 132.213C132.113 132.385 130.088 133.221 128.08 133.145C120.03 132.842 112.229 134.701 104.311 135.534C94.4799 136.566 84.6309 137.417 74.8739 138.339ZM136.774 183.929C148.316 183.326 150.261 182.885 157.888 179.298C160.654 177.997 160.912 177.721 159.589 175.158C158.304 172.666 156.621 170.375 155.06 168.031C152.833 164.688 148.576 164.115 145.427 166.712C144.668 167.338 143.937 168.006 143.253 168.712C141.048 170.988 138.542 171.04 135.883 169.71C133.165 168.349 130.463 166.953 127.79 165.505C124.936 163.958 123.093 164.266 120.836 166.563C117.752 169.702 116.475 173.809 114.721 177.661C113.994 179.258 114.993 180.472 116.056 181.38C116.751 181.973 117.831 182.196 118.777 182.406C125.017 183.792 131.292 184.8 136.774 183.929Z" fill="black"/>
<path fill-rule="evenodd" clip-rule="evenodd" d="M94.1498 81.149C99.5378 82.288 104.887 84.766 107.96 90.498C109.401 93.182 108.411 96.091 107.058 98.523C105.689 100.982 103.886 103.307 101.207 104.573C98.9128 105.656 97.3338 107.797 94.4128 108.086C90.5648 108.466 87.3538 107.923 84.0848 105.685C80.8388 103.462 79.0138 100.657 77.4868 97.113C75.8728 93.369 77.4118 90.536 79.2318 87.982C82.4938 83.406 87.9438 81.093 94.1498 81.149ZM93.4568 103.77C98.2528 103.721 101.482 101.033 103.801 97.293C106.195 93.432 105.62 91.221 102.08 88.224C100.837 87.172 99.5018 86.23 98.2398 85.199C95.7768 83.185 93.1058 83.14 90.2428 84.192C87.0368 85.371 84.7118 87.562 82.7598 90.281C80.6578 93.213 81.0598 96.69 83.8648 98.976C84.7898 99.728 85.7908 100.406 86.6278 101.246C88.5398 103.162 90.9168 103.629 93.4568 103.77Z" fill="black"/>
<path fill-rule="evenodd" clip-rule="evenodd" d="M158.947 94.808C158.941 88.096 163.815 82.5951 170.646 82.6771C173.505 82.7111 176.693 83.153 179.498 85.034C183.356 87.619 184.086 91.3681 184.024 95.2921C183.963 99.1671 182.743 103.054 179.228 105.23C171.995 109.708 161.794 107.931 158.981 97.745C158.728 96.833 158.947 95.79 158.947 94.808ZM170.252 102.515C171.172 102.406 171.927 102.264 172.685 102.235C176.439 102.093 178.381 100.496 179.824 96.318C180.964 93.022 180.1 89.3761 177.781 87.4081C175.842 85.7631 173.504 85.433 171.125 85.456C169.857 85.469 168.12 85.495 167.42 86.265C165.637 88.225 163.94 90.4421 162.9 92.8541C161.161 96.8951 166.583 102.356 170.252 102.515Z" fill="black"/>
<path d="M203.735 70.803C203.735 70.803 204.076 71.235 204.735 72.072C205.381 72.895 206.423 74.271 207.62 75.998C210.037 79.492 213.358 84.824 216.46 92.146C219.506 99.464 222.338 108.82 223.262 119.876C224.208 130.895 223.282 143.597 219.216 156.671C217.153 163.186 214.309 169.768 210.584 176.142C206.871 182.518 202.296 188.715 196.775 194.311C193.999 197.124 191.12 199.77 187.848 202.311C186.3 203.488 184.808 204.679 183.032 205.853C182.174 206.428 181.324 207.061 180.448 207.591C179.572 208.123 178.692 208.657 177.811 209.192C174.245 211.261 170.533 213.179 166.633 214.761C164.708 215.611 162.704 216.286 160.711 217.01C159.708 217.355 158.684 217.642 157.667 217.959L156.138 218.425L154.585 218.821C146.313 220.994 137.601 221.99 128.829 221.749C120.053 221.506 111.231 219.963 102.73 217.218C85.7069 211.825 70.0179 201.13 58.9439 186.761C53.4749 179.629 48.7529 171.865 45.3189 163.58C41.8529 155.317 39.5499 146.609 38.6369 137.827C36.6869 120.248 40.6399 102.55 48.8379 87.823C52.9279 80.445 58.0279 73.812 63.6219 67.939C66.4239 65.004 69.3549 62.256 72.3639 59.679L72.9269 59.194L73.5139 58.706L74.6339 57.787C75.3939 57.176 76.2099 56.544 76.9949 55.946C78.5789 54.769 80.1709 53.617 81.8069 52.555C94.8579 43.976 109.257 39.056 122.873 37.457C126.278 37.036 129.637 36.819 132.925 36.758C136.214 36.733 139.428 36.874 142.55 37.159C148.789 37.746 154.674 38.84 160.037 40.455C170.815 43.617 179.343 48.705 185.766 53.416C192.184 58.204 196.57 62.708 199.46 65.824C200.904 67.39 201.96 68.635 202.657 69.484C203.352 70.336 203.711 70.775 203.711 70.775L203.735 70.803ZM199.574 74.124C199.574 74.124 199.229 73.718 198.561 72.931C197.892 72.146 196.878 70.997 195.498 69.556C194.119 68.113 192.325 66.424 190.123 64.554C187.906 62.702 185.227 60.733 182.105 58.739C175.858 54.754 167.672 50.899 157.814 48.091C152.882 46.708 147.531 45.536 141.792 44.965C138.926 44.671 135.971 44.51 132.943 44.497C129.915 44.454 126.811 44.55 123.653 44.836C117.343 45.418 110.8 46.632 104.246 48.675C97.6909 50.705 91.1379 53.6 84.8729 57.398C83.2979 58.335 81.7629 59.359 80.2289 60.408C79.4689 60.942 78.7429 61.458 77.9769 62.025L76.8219 62.9L75.7189 63.76C72.7339 66.11 69.8249 68.629 67.0219 71.318C61.4229 76.701 56.3019 82.833 52.0339 89.692C47.7739 96.544 44.4589 104.197 42.6249 112.335C40.8019 120.469 40.4429 129.041 41.6329 137.46C42.8179 145.882 45.4469 154.129 49.1669 161.85C52.9149 169.564 57.5989 176.836 63.0879 183.471C68.4929 190.09 74.7729 195.969 81.7599 200.791C88.7389 205.625 96.4289 209.358 104.423 211.901C120.459 216.928 137.616 216.894 152.897 212.574L154.333 212.18L155.745 211.72C156.683 211.406 157.63 211.128 158.554 210.79C160.391 210.083 162.24 209.43 164.008 208.608C167.596 207.081 170.999 205.241 174.265 203.272C175.884 202.255 177.498 201.253 178.985 200.178C180.49 199.188 182.049 197.94 183.582 196.759C186.428 194.526 189.2 191.964 191.716 189.379C196.756 184.145 201.086 178.496 204.586 172.607C208.113 166.732 210.788 160.629 212.815 154.599C216.881 142.518 218.054 130.652 217.379 120.315C216.735 109.945 214.296 101.096 211.471 94.212C208.657 87.297 205.495 82.311 203.238 79.028C202.084 77.366 201.217 76.219 200.549 75.365C199.89 74.527 199.55 74.095 199.55 74.095L199.574 74.124Z" fill="black"/>
</svg>
