<svg width="198" height="198" viewBox="0 0 198 198" fill="none" xmlns="http://www.w3.org/2000/svg">
<path d="M197.726 99.2701C197.726 153.639 153.65 197.72 99.2809 197.72C44.9032 197.72 0.82666 153.639 0.82666 99.2701C0.82666 44.8953 44.9032 0.817383 99.2809 0.817383C153.65 0.817383 197.726 44.8953 197.726 99.2701Z" fill="url(#paint0_linear_103_417)"/>
<path opacity="0.4" d="M99.2811 0.817383C94.6171 0.817383 90.044 1.16958 85.5591 1.79046C133.433 8.4694 181.196 26.56 179.273 99.8552C177.627 162.773 135.723 190.751 85.5591 196.745C90.044 197.372 94.6171 197.718 99.2811 197.718C153.65 197.718 197.726 153.637 197.726 99.2686C197.726 44.8954 153.65 0.817383 99.2811 0.817383Z" fill="#FFE143"/>
<path d="M81.8682 6.959C84.3636 6.21275 19.3906 29.0644 7.08496 102.525C7.08496 102.525 7.3566 29.2092 81.8682 6.959Z" fill="#FFF599"/>
<path d="M49.8569 119.325C49.8569 119.325 93.3723 111.165 138.088 120.832C138.088 120.832 125.176 161.588 98.2781 164.607C71.3803 167.625 49.8569 119.325 49.8569 119.325Z" fill="#231F20"/>
<path d="M95.2246 139.562C85.2577 139.562 76.343 143.935 70.4043 150.811C78.2683 159.24 87.8651 165.773 98.2797 164.607C107.35 163.589 114.791 158.246 120.724 151.655C114.794 144.305 105.591 139.562 95.2246 139.562Z" fill="#EB5D73"/>
<path d="M160.7 58.4412C150.687 40.1954 135.681 58.004 135.681 58.004C135.681 58.004 120.674 40.1954 110.664 58.4412C100.66 76.687 135.681 89.8241 135.681 89.8241C135.681 89.8241 170.7 76.687 160.7 58.4412Z" fill="#E4003C"/>
<path d="M87.8855 58.4412C77.8753 40.1954 62.8712 58.004 62.8712 58.004C62.8712 58.004 47.8626 40.1954 37.8539 58.4412C27.8482 76.687 62.8712 89.8241 62.8712 89.8241C62.8712 89.8241 97.8897 76.687 87.8855 58.4412Z" fill="#E4003C"/>
<defs>
<linearGradient id="paint0_linear_103_417" x1="99.2773" y1="16.9565" x2="99.2773" y2="178.424" gradientUnits="userSpaceOnUse">
<stop stop-color="#FFF046"/>
<stop offset="1" stop-color="#FFD300"/>
</linearGradient>
</defs>
</svg>
