<svg width="197" height="198" viewBox="0 0 197 198" fill="none" xmlns="http://www.w3.org/2000/svg">
<path d="M196.909 98.7284C196.909 153.102 152.83 197.183 98.4641 197.183C44.0849 197.183 0.00830078 153.102 0.00830078 98.7284C0.00830078 44.3596 44.0834 0.281616 98.4641 0.281616C152.83 0.281616 196.909 44.3596 196.909 98.7284Z" fill="url(#paint0_linear_103_347)"/>
<path opacity="0.4" d="M98.4643 0.281616C93.7987 0.281616 89.2272 0.629358 84.7407 1.25472C132.616 7.93067 180.379 26.0213 178.456 99.3194C176.807 162.234 134.905 190.214 84.7407 196.208C89.2272 196.833 93.7987 197.181 98.4643 197.181C152.83 197.181 196.91 153.1 196.91 98.7269C196.91 44.3596 152.83 0.281616 98.4643 0.281616Z" fill="#FFE143"/>
<path d="M81.0493 6.41878C83.5463 5.67253 18.5718 28.5257 6.26465 101.985C6.26465 101.985 6.54075 28.669 81.0493 6.41878Z" fill="#FFF599"/>
<path d="M142.958 155.864C141.775 155.864 140.667 155.133 140.238 153.955C139.842 152.893 129.908 127.616 91.5731 128.838C52.9203 130.049 43.0325 149.523 42.6266 150.353C41.9281 151.788 40.2013 152.396 38.7714 151.709C37.3342 151.024 36.7147 149.315 37.3938 147.872C37.846 146.915 48.9293 124.379 91.3924 123.052C134.065 121.77 145.233 150.742 145.682 151.978C146.227 153.482 145.451 155.14 143.946 155.691C143.621 155.808 143.285 155.864 142.958 155.864Z" fill="#231F20"/>
<path d="M133.281 93.5599C130.48 93.5599 127.411 93.2539 124.057 92.5524C110.846 89.7928 107.276 80.5721 107.235 76.0857C107.221 74.5633 108.444 73.3156 109.968 73.3007C109.976 73.3007 109.988 73.3007 109.995 73.3007C111.5 73.3007 112.728 74.5066 112.756 76.011C112.773 76.4334 113.22 84.6437 125.187 87.1466C145.991 91.5062 153.601 78.0393 153.676 77.9035C154.404 76.5692 156.085 76.0633 157.425 76.8036C158.763 77.5349 159.258 79.2125 158.525 80.5512C158.194 81.1602 151.176 93.5599 133.281 93.5599Z" fill="#231F20"/>
<path d="M53.9516 93.5599C36.058 93.5599 29.0448 81.1602 28.712 80.5497C27.9807 79.2109 28.4762 77.5334 29.812 76.8021C31.1552 76.0618 32.8313 76.5678 33.5611 77.902C33.8671 78.4453 41.452 91.4659 62.05 87.1451C74.2601 84.5929 74.478 76.1185 74.484 76.0319C74.4974 74.5126 75.7466 73.2798 77.2705 73.2992C78.7913 73.3141 80.0152 74.5618 80.0032 76.0842C79.9599 80.5706 76.3914 89.7913 63.1813 92.5509C59.8291 93.2539 56.756 93.5599 53.9516 93.5599Z" fill="#231F20"/>
<defs>
<linearGradient id="paint0_linear_103_347" x1="98.4594" y1="16.4209" x2="98.4594" y2="177.887" gradientUnits="userSpaceOnUse">
<stop stop-color="#FFF046"/>
<stop offset="1" stop-color="#FFD300"/>
</linearGradient>
</defs>
</svg>
