<svg width="197" height="198" viewBox="0 0 197 198" fill="none" xmlns="http://www.w3.org/2000/svg">
<path d="M196.909 99.2731C196.909 153.642 152.83 197.72 98.4641 197.72C44.0849 197.72 0.00830078 153.642 0.00830078 99.2731C0.00830078 44.8954 44.0834 0.817383 98.4641 0.817383C152.83 0.817383 196.909 44.8954 196.909 99.2731Z" fill="url(#paint0_linear_103_441)"/>
<path opacity="0.4" d="M98.4643 0.817383C93.8017 0.817383 89.2272 1.16958 84.7407 1.79046C132.619 8.47238 180.382 26.56 178.459 99.8611C176.807 162.773 134.908 190.751 84.7407 196.745C89.2272 197.372 93.8017 197.718 98.4643 197.718C152.83 197.718 196.91 153.64 196.91 99.2716C196.91 44.8954 152.83 0.817383 98.4643 0.817383Z" fill="#FFE143"/>
<path d="M81.0528 6.959C83.5497 6.21275 18.5723 29.0644 6.2666 102.525C6.2666 102.525 6.54118 29.2092 81.0528 6.959Z" fill="#FFF599"/>
<path d="M98.464 150.832C97.6133 150.832 96.764 150.514 96.1073 149.887L81.2465 135.851L63.741 149.182C62.4425 150.167 60.6381 150.112 59.4143 149.048L45.2534 136.778C43.8206 135.539 43.6639 133.368 44.9071 131.937C46.1504 130.502 48.322 130.357 49.7458 131.59L61.7992 142.032L79.4003 128.626C80.7406 127.605 82.6196 127.702 83.839 128.859L98.464 142.674L113.085 128.859C114.307 127.702 116.186 127.605 117.523 128.626L135.124 142.032L147.164 131.59C148.599 130.351 150.767 130.501 152.01 131.937C153.254 133.368 153.099 135.539 151.669 136.778L137.515 149.048C136.284 150.112 134.48 150.167 133.184 149.182L115.683 135.851L100.821 149.887C100.159 150.514 99.3118 150.832 98.464 150.832Z" fill="#231F20"/>
<path d="M48.5845 93.3986C46.8084 93.3986 45.3025 92.0255 45.1622 90.23C45.016 88.3405 46.4353 86.6883 48.3218 86.542L72.6884 84.6675L49.098 66.9754C47.5816 65.8381 47.2741 63.6844 48.4114 62.168C49.5532 60.6516 51.7024 60.3427 53.2232 61.48L84.106 84.6421C85.2493 85.5018 85.7418 86.9779 85.3418 88.3465C84.9359 89.7226 83.7314 90.7046 82.3076 90.8091L48.8517 93.3837C48.7621 93.3956 48.6725 93.3986 48.5845 93.3986Z" fill="#231F20"/>
<path d="M148.336 93.3986C148.252 93.3986 148.162 93.3956 148.071 93.3867L114.611 90.8121C113.187 90.7077 111.981 89.7241 111.577 88.3495C111.177 86.9794 111.672 85.5048 112.813 84.6451L143.695 61.483C145.215 60.3457 147.37 60.6547 148.507 62.1711C149.642 63.6874 149.337 65.8411 147.822 66.9784L124.23 84.6705L148.597 86.5451C150.486 86.6913 151.903 88.3435 151.756 90.233C151.619 92.0255 150.113 93.3986 148.336 93.3986Z" fill="#231F20"/>
<defs>
<linearGradient id="paint0_linear_103_441" x1="98.4594" y1="16.9565" x2="98.4594" y2="178.424" gradientUnits="userSpaceOnUse">
<stop stop-color="#FFF046"/>
<stop offset="1" stop-color="#FFD300"/>
</linearGradient>
</defs>
</svg>
