<svg width="198" height="198" viewBox="0 0 198 198" fill="none" xmlns="http://www.w3.org/2000/svg">
<path d="M197.555 99.2642C197.555 153.639 153.479 197.72 99.1085 197.72C44.7323 197.72 0.655762 153.639 0.655762 99.2642C0.655762 44.8954 44.7323 0.817383 99.1085 0.817383C153.479 0.817383 197.555 44.8954 197.555 99.2642Z" fill="url(#paint0_linear_103_284)"/>
<path opacity="0.4" d="M99.1087 0.817383C94.4476 0.817383 89.8761 1.16659 85.3882 1.79046C133.26 8.4694 181.028 26.56 179.104 99.8552C177.456 162.773 135.554 190.751 85.3882 196.745C89.8761 197.372 94.4476 197.718 99.1087 197.718C153.479 197.718 197.556 153.637 197.556 99.2626C197.556 44.8953 153.479 0.817383 99.1087 0.817383Z" fill="#FFE143"/>
<path d="M81.6987 6.95595C84.1942 6.2097 19.2212 29.0644 6.91406 102.522C6.91406 102.522 7.18569 29.2061 81.6987 6.95595Z" fill="#FFF599"/>
<path d="M144.184 74.5216C144.184 82.999 137.312 89.8719 128.833 89.8719C120.357 89.8719 113.486 82.9975 113.486 74.5216C113.486 66.0456 120.357 59.1711 128.833 59.1711C137.312 59.1697 144.184 66.0442 144.184 74.5216Z" fill="#231F20"/>
<path d="M145.803 66.4396C145.803 70.4455 142.561 73.6872 138.559 73.6872C134.553 73.6872 131.311 70.4455 131.311 66.4396C131.311 62.4397 134.554 59.1996 138.559 59.1996C142.563 59.1996 145.803 62.4412 145.803 66.4396Z" fill="white"/>
<path d="M73.1673 74.5216C73.1673 82.999 66.2973 89.8719 57.8199 89.8719C49.3455 89.8719 42.4785 82.9975 42.4785 74.5216C42.4785 66.0456 49.347 59.1711 57.8199 59.1711C66.2973 59.1697 73.1673 66.0442 73.1673 74.5216Z" fill="#231F20"/>
<path d="M74.7866 66.4396C74.7866 70.4455 71.5479 73.6872 67.542 73.6872C63.5361 73.6872 60.2959 70.4455 60.2959 66.4396C60.2959 62.4397 63.5361 59.1996 67.542 59.1996C71.5494 59.1996 74.7866 62.4412 74.7866 66.4396Z" fill="white"/>
<path d="M49.689 118.398C49.689 118.398 98.5385 104.58 137.917 119.471C137.917 119.471 125.007 148.523 98.1087 150.679C71.2093 152.827 49.689 118.398 49.689 118.398Z" fill="#231F20"/>
<path d="M95.0566 132.824C85.0867 132.824 76.172 135.941 70.2349 140.838C78.0974 146.851 87.6941 151.506 98.1103 150.679C107.179 149.951 114.619 146.144 120.553 141.442C114.622 136.2 105.424 132.824 95.0566 132.824Z" fill="#EB5D73"/>
<defs>
<linearGradient id="paint0_linear_103_284" x1="99.1062" y1="16.9565" x2="99.1062" y2="178.424" gradientUnits="userSpaceOnUse">
<stop stop-color="#FFF046"/>
<stop offset="1" stop-color="#FFD300"/>
</linearGradient>
</defs>
</svg>
