<svg width="197" height="198" viewBox="0 0 197 198" fill="none" xmlns="http://www.w3.org/2000/svg">
<path d="M196.99 98.7284C196.99 153.102 152.915 197.183 98.5446 197.183C44.1683 197.183 0.090332 153.102 0.090332 98.7284C0.090332 44.3596 44.1683 0.281616 98.5446 0.281616C152.913 0.281616 196.99 44.3596 196.99 98.7284Z" fill="url(#paint0_linear_103_318)"/>
<path opacity="0.4" d="M98.5431 0.281616C93.8805 0.281616 89.3075 0.627878 84.821 1.25324C132.694 7.93068 180.459 26.0213 178.537 99.3194C176.889 162.234 134.985 190.214 84.821 196.208C89.3075 196.833 93.8805 197.181 98.5431 197.181C152.913 197.181 196.988 153.1 196.988 98.7269C196.99 44.3596 152.913 0.281616 98.5431 0.281616Z" fill="#FFE143"/>
<path d="M81.1301 6.41878C83.6256 5.67253 18.6526 28.5257 6.34839 101.985C6.34839 101.985 6.62002 28.669 81.1301 6.41878Z" fill="#FFF599"/>
<path d="M143.617 73.9828C143.617 82.4616 136.744 89.3331 128.266 89.3331C119.792 89.3331 112.919 82.4602 112.919 73.9828C112.919 65.5083 119.792 58.6324 128.266 58.6324C136.744 58.6324 143.617 65.5083 143.617 73.9828Z" fill="#231F20"/>
<path d="M145.239 65.9039C145.239 69.9068 141.996 73.1485 137.993 73.1485C133.989 73.1485 130.744 69.9068 130.744 65.9039C130.744 61.904 133.99 58.6608 137.993 58.6608C141.996 58.6623 145.239 61.904 145.239 65.9039Z" fill="white"/>
<path d="M72.6004 73.9828C72.6004 82.4616 65.7305 89.3331 57.2531 89.3331C48.7786 89.3331 41.9102 82.4602 41.9102 73.9828C41.9102 65.5083 48.7786 58.6324 57.2531 58.6324C65.7305 58.6324 72.6004 65.5083 72.6004 73.9828Z" fill="#231F20"/>
<path d="M74.2214 65.9039C74.2214 69.9068 70.9826 73.1485 66.9768 73.1485C62.9724 73.1485 59.7322 69.9068 59.7322 65.9039C59.7322 61.904 62.9739 58.6608 66.9768 58.6608C70.9826 58.6623 74.2214 61.904 74.2214 65.9039Z" fill="white"/>
<path d="M150.945 129.463C147.715 122.356 143.696 117.867 138.994 116.115C134.629 114.486 131.318 115.894 130.957 116.058C129.529 116.712 128.917 118.37 129.539 119.817C130.157 121.261 131.862 121.929 133.309 121.349C133.46 121.289 135.572 120.519 138.447 122.291C137.741 124.116 127.587 148.42 89.8314 147.293C51.2011 146.087 41.2983 126.634 40.8834 125.781C40.2043 124.341 38.4924 123.723 37.0372 124.405C35.5895 125.087 34.9716 126.81 35.6507 128.258C36.1029 129.219 47.1862 151.755 89.6509 153.082C90.615 153.112 91.5538 153.127 92.4881 153.127C126.304 153.127 139.2 133.75 142.781 126.689C143.736 128.065 144.708 129.743 145.673 131.862C146.16 132.929 147.212 133.559 148.309 133.559C148.714 133.559 149.121 133.475 149.509 133.299C150.964 132.634 151.608 130.919 150.945 129.463Z" fill="#231F20"/>
<defs>
<linearGradient id="paint0_linear_103_318" x1="98.5395" y1="16.4209" x2="98.5395" y2="177.887" gradientUnits="userSpaceOnUse">
<stop stop-color="#FFF046"/>
<stop offset="1" stop-color="#FFD300"/>
</linearGradient>
</defs>
</svg>
